<svg width="13" height="13" viewBox="0 0 13 13" fill="none" xmlns="http://www.w3.org/2000/svg">
<g clip-path="url(#clip0_0_91)">
<path fill-rule="evenodd" clip-rule="evenodd" d="M12.2996 0.700247C12.4467 0.847384 12.4965 1.0658 12.4278 1.2622L8.63614 12.0955C8.56278 12.3051 8.36888 12.4487 8.14697 12.4578C7.92506 12.4668 7.72011 12.3395 7.62991 12.1365L5.54786 7.45194L0.863259 5.36989C0.660308 5.27969 0.532982 5.07474 0.542035 4.85283C0.551088 4.63093 0.694686 4.43703 0.90431 4.36366L11.7376 0.572007C11.934 0.503267 12.1524 0.553111 12.2996 0.700247ZM6.6043 7.16153L8.06498 10.4481L10.6212 3.14467L6.6043 7.16153ZM9.85514 2.37864L2.55174 4.93483L5.83827 6.3955L9.85514 2.37864Z" fill="white"/>
</g>
<defs>
<clipPath id="clip0_0_91">
<rect width="12.5293" height="12.5293" fill="white" transform="scale(1.03757)"/>
</clipPath>
</defs>
</svg>
