<svg width="136" height="79" viewBox="0 0 136 79" fill="none" xmlns="http://www.w3.org/2000/svg">
<path d="M134.797 2.06427L132.422 0.696237C131.519 0.23853 130.521 0 129.508 0C128.495 0 127.497 0.23853 126.594 0.696237L1.20181 73.1029C-0.400602 74.0244 -0.400602 75.5412 1.20181 76.4627L3.56997 77.8308C4.47439 78.2885 5.47389 78.5271 6.48763 78.5271C7.50136 78.5271 8.50087 78.2885 9.40529 77.8308L47.4944 55.8571L62.93 64.76C67.2976 67.2834 74.4517 67.2834 78.8194 64.76L105.096 49.5911C108.826 47.4646 108.826 43.9205 105.096 41.794L88.5118 32.1469L134.804 5.43119C136.4 4.50263 136.4 2.99283 134.797 2.06427Z" fill="#E0E0E0"/>
</svg>
