<svg width="9" height="14" viewBox="0 0 9 14" fill="none" xmlns="http://www.w3.org/2000/svg">
<path d="M8.38773 8.85056L5.68032 6.82247L8.47068 1.48461C8.59569 1.24666 8.62104 0.968813 8.54113 0.712189C8.46122 0.455566 8.28262 0.241189 8.0446 0.116217C7.80659 -0.00875588 7.52864 -0.0340857 7.27194 0.0457999C7.01525 0.125685 6.80082 0.304239 6.67581 0.542187L4.03627 5.58602L1.62296 3.7615C1.51699 3.6813 1.39626 3.62275 1.26765 3.5892C1.13905 3.55565 1.00511 3.54775 0.873453 3.56595C0.741796 3.58416 0.615 3.6281 0.500333 3.69529C0.385667 3.76247 0.285363 3.85158 0.205143 3.95752C0.124923 4.06345 0.0663674 4.18415 0.0328066 4.31272C-0.000754194 4.44128 -0.00866929 4.5752 0.00953846 4.70682C0.0277462 4.83843 0.0717244 4.96518 0.138929 5.07981C0.206133 5.19444 0.295261 5.29472 0.401231 5.37492L3.08602 7.403L0.40878 12.5147C0.284064 12.7537 0.259283 13.0324 0.339873 13.2896C0.420463 13.5469 0.599823 13.7617 0.838631 13.8869C0.983516 13.9605 1.14365 13.9993 1.3062 13.9999C1.49116 14.0002 1.67265 13.9498 1.8309 13.854C1.98915 13.7583 2.11807 13.621 2.20365 13.4571L4.72255 8.647L7.14338 10.4715C7.35796 10.6319 7.62715 10.7013 7.89257 10.6646C8.15798 10.6279 8.39822 10.4881 8.5612 10.2755C8.72649 10.0633 8.80102 9.79426 8.76852 9.52725C8.73602 9.26025 8.59912 9.01697 8.38773 8.85056Z" fill="#F5F7FA"/>
</svg>
