<svg width="39" height="21" viewBox="0 0 39 21" fill="none" xmlns="http://www.w3.org/2000/svg">
<g clip-path="url(#clip0_211_2081)">
<path d="M38.497 7.46876C38.501 7.43957 38.501 7.41006 38.497 7.38087C38.5008 7.35709 38.5008 7.33283 38.497 7.309L38.2118 5.25614C38.1707 5.01054 38.0606 4.78099 37.8941 4.59316L37.8451 4.53725L37.7556 4.44938L32.818 0.279773L32.9565 0.415575C32.8432 0.282656 32.701 0.17634 32.5403 0.104456C32.3795 0.0325712 32.2043 -0.00305377 32.0277 0.000208645H30.5285C30.2847 -0.00452662 30.0465 0.0714599 29.8523 0.215881C29.6483 0.0723298 29.4027 -0.00326801 29.1516 0.000208645H27.6524C27.4557 -0.00291881 27.2618 0.0449215 27.0901 0.1389C26.9184 0.232878 26.7751 0.369657 26.6747 0.535385C26.5198 0.772091 26.4616 1.05729 26.5117 1.33416L26.6991 2.62817C26.575 2.55918 26.4344 2.52338 26.2917 2.52434H19.0321C18.7716 2.52594 18.5172 2.60079 18.2988 2.74C18.0876 2.86958 17.9181 3.05513 17.8099 3.27518L17.2477 2.8039C17.0265 2.60319 16.7344 2.4944 16.433 2.50038H5.04247C4.78109 2.50504 4.52551 2.57663 4.30106 2.70806C3.99399 2.88426 3.76895 3.17075 3.67367 3.50683L0.0560817 15.3686C-0.0115116 15.5641 -0.0181609 15.7749 0.0369853 15.9741C0.0921316 16.1732 0.206576 16.3518 0.365698 16.4869C0.407161 16.5214 0.450696 16.5534 0.496065 16.5828C0.496065 16.5828 0.422724 16.5348 0.381985 16.4949L5.31952 20.6725C5.52839 20.861 5.80147 20.9664 6.08535 20.968H17.5655C17.8277 20.9614 18.0835 20.887 18.307 20.7524C18.4334 20.6846 18.5465 20.5954 18.641 20.4888L18.6818 20.4328L18.7469 20.353L18.7958 20.2651L19.3336 20.7204C19.5394 20.9015 19.8066 21.0011 20.0832 21H31.5877C31.8496 20.9914 32.1049 20.9172 32.3292 20.7843C32.4527 20.7125 32.5652 20.6237 32.6632 20.5207L32.7039 20.4648L32.7691 20.385C32.8038 20.3344 32.8338 20.281 32.8587 20.2252C32.8854 20.1768 32.9072 20.1259 32.9239 20.0734L36.2237 9.24205V9.14618C36.2278 9.10901 36.2278 9.07153 36.2237 9.03436V8.96249C36.2277 8.93865 36.2277 8.9144 36.2237 8.89056C36.2274 8.84006 36.2274 8.78934 36.2237 8.73878H37.283C37.3751 8.74708 37.4678 8.74708 37.56 8.73878H37.6333C37.693 8.72135 37.7504 8.6972 37.8044 8.66691H37.8859L38.0326 8.55509L38.0977 8.50715L38.2118 8.36336V8.31548L38.2933 8.17966C38.2887 8.15325 38.2887 8.12621 38.2933 8.09981C38.289 8.08684 38.289 8.07282 38.2933 8.05985C38.3106 8.01302 38.3242 7.96493 38.334 7.91606C38.3302 7.90031 38.3302 7.88387 38.334 7.86812C38.3301 7.84434 38.3301 7.82003 38.334 7.79625C38.334 7.79625 38.497 7.48472 38.497 7.46876Z" fill="black"/>
<path d="M16.767 3.41101C16.8103 3.44936 16.8405 3.49978 16.8536 3.55548C16.8668 3.61118 16.8621 3.66949 16.8404 3.72253L13.231 15.5764C13.1855 15.7058 13.0925 15.814 12.9703 15.8799C12.8707 15.9452 12.7556 15.9837 12.6362 15.9917H1.16421C1.06624 15.9871 0.973419 15.9473 0.903477 15.8799C0.861871 15.8422 0.83267 15.7931 0.819606 15.7391C0.806543 15.685 0.810222 15.6284 0.830151 15.5764L4.44773 3.72253C4.48942 3.59148 4.57948 3.48039 4.70031 3.41101C4.80146 3.35044 4.91609 3.31481 5.03437 3.30717H16.5063C16.6035 3.30809 16.6967 3.34521 16.767 3.41101ZM10.7785 13.188L12.9376 6.11086H6.89206L4.74104 13.188H10.7785ZM27.7176 3.53082C27.7567 3.57542 27.8056 3.61078 27.8607 3.63429C27.9157 3.6578 27.9754 3.66885 28.0354 3.66661H29.5264C29.5832 3.66716 29.6391 3.65351 29.689 3.62695C29.7389 3.6004 29.7811 3.56181 29.8115 3.51485C29.838 3.47816 29.8567 3.43663 29.8665 3.39272C29.8763 3.34881 29.877 3.30342 29.8685 3.25924L29.5753 1.15048C29.5473 1.05288 29.4972 0.962758 29.4286 0.886879C29.3894 0.842286 29.3406 0.806922 29.2855 0.783412C29.2305 0.759903 29.1708 0.748857 29.1108 0.751088H27.6198C27.563 0.750547 27.5071 0.764197 27.4572 0.790752C27.4073 0.817306 27.3651 0.855889 27.3347 0.90286C27.2776 1.01469 27.2532 1.08657 27.2776 1.15048L27.5791 3.25924C27.5945 3.36192 27.6431 3.45707 27.7176 3.53082ZM32.4514 1.1345C32.4235 1.0369 32.3733 0.946777 32.3047 0.870904C32.2673 0.826473 32.2198 0.791119 32.1661 0.767568C32.1124 0.744022 32.0539 0.732913 31.9951 0.735112H30.4959C30.4401 0.733553 30.3849 0.746836 30.3361 0.773553C30.2873 0.80027 30.2469 0.839435 30.219 0.886879C30.1647 0.957744 30.1413 1.04676 30.1538 1.1345L30.4552 3.24326C30.4741 3.34486 30.5221 3.43907 30.5937 3.51485C30.6336 3.55857 30.6826 3.59334 30.7375 3.61677C30.7923 3.64021 30.8516 3.65176 30.9115 3.65063H32.4107C32.4664 3.65136 32.5213 3.63772 32.5699 3.61108C32.6185 3.58445 32.6592 3.54576 32.6877 3.49888C32.7161 3.46314 32.7358 3.42162 32.7457 3.3774C32.7556 3.33317 32.7552 3.28734 32.7447 3.24326L32.4514 1.1345ZM26.4058 4.3296L26.2591 3.29119H19.0321C18.9187 3.29732 18.8089 3.33319 18.7143 3.39503C18.6544 3.42711 18.6021 3.47158 18.5613 3.52536C18.5206 3.57915 18.4922 3.64096 18.4781 3.70656L17.8752 5.6875C17.8511 5.73701 17.8429 5.79255 17.8516 5.84673C17.8603 5.90091 17.8856 5.95121 17.924 5.99106C17.9927 6.05437 18.0824 6.09128 18.1766 6.0949H26.9599L24.8007 13.1721H16.0419C15.929 13.1746 15.819 13.2078 15.7242 13.2679C15.6089 13.3396 15.5248 13.4506 15.4879 13.5794L14.8768 15.5604C14.8569 15.6112 14.8516 15.6664 14.8617 15.72C14.8718 15.7736 14.8967 15.8234 14.9338 15.8639C15.0004 15.9315 15.0907 15.9715 15.1864 15.9757H26.691C26.8099 15.9657 26.9246 15.9273 27.025 15.8639C27.1453 15.7976 27.2356 15.6892 27.2776 15.5604L30.5856 4.72899H26.8621C26.803 4.73013 26.7443 4.71938 26.6897 4.69739C26.635 4.67541 26.5856 4.64266 26.5443 4.60118C26.477 4.52874 26.4293 4.44084 26.4058 4.34558V4.3296Z" fill="white"/>
</g>
<defs>
<clipPath id="clip0_211_2081">
<rect width="38.2838" height="20.8821" fill="white" transform="scale(1.00565)"/>
</clipPath>
</defs>
</svg>
