<svg width="37" height="14" viewBox="0 0 37 14" fill="none" xmlns="http://www.w3.org/2000/svg">
<g clip-path="url(#clip0_211_2077)">
<path d="M8.64019 0C7.21868 0 5.85541 0.56469 4.85025 1.56985L1.56985 4.85025C0.56469 5.85541 0 7.21868 0 8.6402C0 11.6004 2.39967 14 5.35981 14C6.78132 14 8.14459 13.4353 9.14975 12.4301L11.4188 10.1611C11.4188 10.161 11.4189 10.1611 11.4188 10.1611L18.0301 3.54975C18.5102 3.06969 19.1613 2.8 19.8402 2.8C20.9768 2.8 21.9404 3.54079 22.2745 4.5659L24.361 2.47938C23.4092 0.988559 21.7401 0 19.8402 0C18.4187 0 17.0554 0.56469 16.0503 1.56985L7.16987 10.4503C6.68981 10.9303 6.03871 11.2 5.35981 11.2C3.94606 11.2 2.8 10.054 2.8 8.6402C2.8 7.96129 3.06969 7.31019 3.54975 6.83013L6.83013 3.54975C7.31019 3.06969 7.96129 2.8 8.64019 2.8C9.77685 2.8 10.7404 3.54083 11.0745 4.56597L13.1611 2.47943C12.2092 0.988587 10.5402 0 8.64019 0Z" fill="#394149"/>
<path d="M18.3699 10.4503C17.8898 10.9303 17.2387 11.2 16.5598 11.2C15.4233 11.2 14.4598 10.4594 14.1256 9.43446L12.0392 11.5209C12.9911 13.0116 14.66 14 16.5598 14C17.9813 14 19.3446 13.4353 20.3497 12.4301L29.2301 3.54975C29.7102 3.06969 30.3613 2.8 31.0402 2.8C32.454 2.8 33.6 3.94606 33.6 5.35981C33.6 6.03871 33.3303 6.68981 32.8503 7.16987L29.5699 10.4503C29.0898 10.9303 28.4387 11.2 27.7598 11.2C26.6232 11.2 25.6597 10.4593 25.3255 9.43423L23.2391 11.5207C24.1909 13.0115 25.8599 14 27.7598 14C29.1813 14 30.5446 13.4353 31.5497 12.4301L34.8301 9.14975C35.8353 8.1446 36.4 6.78132 36.4 5.35981C36.4 2.39967 34.0004 0 31.0402 0C29.6187 0 28.2554 0.56469 27.2503 1.56985L18.3699 10.4503Z" fill="#394149"/>
</g>
<defs>
<clipPath id="clip0_211_2077">
<rect width="36.1956" height="13.9214" fill="white" transform="scale(1.00565)"/>
</clipPath>
</defs>
</svg>
