<svg width="23" height="23" viewBox="0 0 23 23" fill="none" xmlns="http://www.w3.org/2000/svg">
<path opacity="0.1" fill-rule="evenodd" clip-rule="evenodd" d="M0 11.5C0 5.14872 5.14872 0 11.5 0C17.8513 0 23 5.14872 23 11.5C23 17.8513 17.8513 23 11.5 23C5.14872 23 0 17.8513 0 11.5Z" fill="white"/>
<path fill-rule="evenodd" clip-rule="evenodd" d="M11.5005 5.36661C9.83482 5.36661 9.62577 5.37389 8.97154 5.40367C8.31859 5.43357 7.8729 5.53694 7.48292 5.68861C7.07952 5.84527 6.73733 6.05483 6.39641 6.39587C6.05524 6.73678 5.84569 7.07898 5.68852 7.48225C5.53646 7.87236 5.43296 8.31818 5.40357 8.97087C5.37431 9.6251 5.36664 9.83428 5.36664 11.5C5.36664 13.1657 5.37405 13.3741 5.4037 14.0284C5.43373 14.6813 5.5371 15.127 5.68864 15.517C5.84543 15.9204 6.05499 16.2626 6.39603 16.6035C6.73682 16.9447 7.07901 17.1547 7.48215 17.3114C7.87239 17.4631 8.31821 17.5664 8.97103 17.5963C9.62526 17.6261 9.83418 17.6334 11.4998 17.6334C13.1656 17.6334 13.374 17.6261 14.0283 17.5963C14.6812 17.5664 15.1274 17.4631 15.5177 17.3114C15.9209 17.1547 16.2626 16.9447 16.6034 16.6035C16.9446 16.2626 17.1541 15.9204 17.3113 15.5171C17.4621 15.127 17.5656 14.6812 17.5962 14.0285C17.6256 13.3743 17.6333 13.1657 17.6333 11.5C17.6333 9.83428 17.6256 9.62523 17.5962 8.971C17.5656 8.31805 17.4621 7.87236 17.3113 7.48238C17.1541 7.07898 16.9446 6.73678 16.6034 6.39587C16.2622 6.0547 15.9211 5.84514 15.5173 5.68861C15.1263 5.53694 14.6803 5.43357 14.0274 5.40367C13.3731 5.37389 13.1649 5.36661 11.4986 5.36661H11.5005ZM10.9503 6.47188C11.1136 6.47163 11.2958 6.47188 11.5005 6.47188C13.1381 6.47188 13.3322 6.47776 13.9789 6.50715C14.5769 6.53449 14.9015 6.63442 15.1177 6.71837C15.4039 6.82954 15.608 6.96243 15.8225 7.17709C16.0372 7.39176 16.1701 7.59621 16.2815 7.88243C16.3655 8.09838 16.4655 8.42294 16.4927 9.02095C16.5221 9.66751 16.5285 9.86173 16.5285 11.4986C16.5285 13.1354 16.5221 13.3297 16.4927 13.9762C16.4654 14.5742 16.3655 14.8988 16.2815 15.1147C16.1703 15.401 16.0372 15.6048 15.8225 15.8193C15.6079 16.034 15.404 16.1669 15.1177 16.278C14.9017 16.3624 14.5769 16.462 13.9789 16.4894C13.3324 16.5188 13.1381 16.5252 11.5005 16.5252C9.86278 16.5252 9.66868 16.5188 9.02212 16.4894C8.42411 16.4618 8.09955 16.3619 7.88322 16.2779C7.597 16.1667 7.39255 16.0338 7.17788 15.8192C6.96321 15.6045 6.83032 15.4006 6.7189 15.1142C6.63495 14.8983 6.5349 14.5737 6.50768 13.9757C6.47829 13.3291 6.47242 13.1349 6.47242 11.497C6.47242 9.85918 6.47829 9.66597 6.50768 9.01941C6.53503 8.42141 6.63495 8.09685 6.7189 7.88065C6.83007 7.59442 6.96321 7.38997 7.17788 7.17531C7.39255 6.96064 7.597 6.82775 7.88322 6.71632C8.09943 6.63199 8.42411 6.53232 9.02212 6.50485C9.58792 6.47929 9.80719 6.47163 10.9503 6.47035V6.47188ZM14.7745 7.49028C14.3681 7.49028 14.0385 7.81957 14.0385 8.22604C14.0385 8.63237 14.3681 8.96204 14.7745 8.96204C15.1808 8.96204 15.5105 8.63237 15.5105 8.22604C15.5105 7.8197 15.1808 7.49028 14.7745 7.49028ZM11.5006 8.35023C9.7611 8.35023 8.3508 9.76053 8.3508 11.5C8.3508 13.2394 9.7611 14.6491 11.5006 14.6491C13.24 14.6491 14.6498 13.2394 14.6498 11.5C14.6498 9.76053 13.24 8.35023 11.5006 8.35023ZM11.5005 9.45552C12.6296 9.45552 13.545 10.3708 13.545 11.5C13.545 12.629 12.6296 13.5445 11.5005 13.5445C10.3714 13.5445 9.45607 12.629 9.45607 11.5C9.45607 10.3708 10.3714 9.45552 11.5005 9.45552Z" fill="white"/>
</svg>
