<svg width="2" height="3" viewBox="0 0 2 3" fill="none" xmlns="http://www.w3.org/2000/svg">
<path d="M1.81148 2.58527C1.81148 2.58527 1.81149 2.67273 1.73993 2.77609C1.68078 2.85106 1.60426 2.91051 1.51699 2.94929C1.42972 2.98808 1.33433 3.00504 1.23904 2.99871C0.7302 2.99871 0.237266 2.41036 0.0623522 1.7266C-0.0207841 1.39516 -0.0207841 1.04833 0.0623522 0.716883C0.0786717 0.572213 0.130841 0.4339 0.214144 0.3145C0.297446 0.195099 0.409239 0.0983884 0.539382 0.0331297C0.646308 -0.0110432 0.76638 -0.0110432 0.873306 0.0331297C0.952586 0.0724917 1.01682 0.136711 1.05618 0.21599C1.11183 0.351151 1.05618 0.438611 1.05618 0.43066C1.05618 0.42271 1.05617 0.351157 0.976668 0.271651C0.935107 0.214704 0.873998 0.175099 0.805041 0.160427C0.736085 0.145756 0.664132 0.157045 0.602988 0.19214C0.505462 0.251112 0.424433 0.333785 0.36744 0.43248C0.310446 0.531176 0.279338 0.642681 0.27701 0.756626C0.21009 1.05236 0.21009 1.35931 0.27701 1.65505C0.436022 2.2752 0.865356 2.77609 1.24699 2.82379C1.32165 2.83392 1.3976 2.82855 1.4701 2.80803C1.5426 2.78751 1.61008 2.75229 1.66837 2.70454C1.76377 2.64093 1.79558 2.57732 1.81148 2.58527Z" fill="#EB996E"/>
</svg>
