<svg width="3" height="5" viewBox="0 0 3 5" fill="none" xmlns="http://www.w3.org/2000/svg">
<path d="M1.82351 2.88616V4.26895C1.83474 4.33044 1.83474 4.39344 1.82351 4.45492C1.80182 4.50738 1.76527 4.55235 1.71835 4.58431L1.0308 4.98056C1.01615 4.99309 0.997508 4.99996 0.978228 4.99996C0.958948 4.99996 0.9403 4.99309 0.925649 4.98056C0.916528 4.9588 0.911832 4.93541 0.911832 4.91181C0.911832 4.88821 0.916528 4.86485 0.925649 4.84308V3.4603L0.116769 3.9455C0.109973 3.95259 0.101814 3.95822 0.0927781 3.96208C0.0837421 3.96594 0.0740177 3.96793 0.0641928 3.96793C0.0543678 3.96793 0.0446434 3.96594 0.0356075 3.96208C0.0265715 3.95822 0.0184122 3.95259 0.0116167 3.9455C-0.00387222 3.90376 -0.00387222 3.85785 0.0116167 3.81611V2.96703C-0.000587882 2.90563 -0.000587882 2.84243 0.0116167 2.78103C0.0333024 2.72858 0.0698505 2.68362 0.116769 2.65166L0.925649 2.16646V0.727074C0.911192 0.66592 0.911192 0.602243 0.925649 0.541089C0.947418 0.490826 0.984132 0.44847 1.0308 0.419784L1.71835 0.0154607C1.73403 0.00536254 1.75228 0 1.77093 0C1.78958 0 1.80783 0.00536254 1.82351 0.0154607C1.83891 0.0599895 1.83891 0.1084 1.82351 0.152929V1.53572L2.63239 1.05053C2.64806 1.04043 2.66632 1.03507 2.68497 1.03507C2.70361 1.03507 2.72186 1.04043 2.73754 1.05053C2.75345 1.06939 2.76526 1.09135 2.77222 1.11501C2.77918 1.13868 2.78115 1.16354 2.77799 1.18801V2.03708C2.78015 2.10147 2.76625 2.1654 2.73754 2.22308C2.7135 2.27409 2.67741 2.31848 2.63239 2.35245L1.82351 2.88616Z" fill="#F5F7FA"/>
</svg>
