<svg width="37" height="40" viewBox="0 0 37 40" fill="none" xmlns="http://www.w3.org/2000/svg">
<path d="M37 39.6085C36.7169 39.7267 36.4106 39.7791 36.1043 39.7618C35.798 39.7444 35.4996 39.6577 35.2317 39.5083L4.76147 22.8031C4.4947 22.6553 4.26394 22.4502 4.08571 22.2028C3.90748 21.9553 3.78619 21.6715 3.73052 21.3717L0.0076485 1.80363C-0.0025495 1.69173 -0.0025495 1.57914 0.0076485 1.46724C0.000678365 1.19688 0.0477552 0.927855 0.146103 0.675911C0.244451 0.423967 0.392105 0.194176 0.58041 0L32.2104 17.3636C32.4064 17.4689 32.5764 17.6168 32.7077 17.7964C32.839 17.976 32.9284 18.1827 32.9693 18.4014L37 39.6085Z" fill="#4CAF4F"/>
</svg>
