<svg width="37" height="58" viewBox="0 0 37 58" fill="none" xmlns="http://www.w3.org/2000/svg">
<path d="M36.8733 4.13669C36.3131 2.23035 34.283 1.28445 32.4349 0.760567C29.619 -0.0398075 26.5776 -0.389064 23.8272 0.622319C21.0768 1.6337 17.7735 3.40908 17.7735 6.44322C16.1509 6.31225 15.2196 7.7311 14.5793 9.49192C14.1699 10.5647 13.9246 11.693 13.8516 12.8389C13.6479 16.8117 12.5347 22.2979 9.95892 25.2084C8.50369 26.831 6.4882 27.9515 5.65872 29.9742C4.93111 31.7278 5.30947 33.8088 4.63279 35.5841C4.02887 37.1485 2.69734 38.2617 1.72233 39.6224C0.729016 41.1659 0.144435 42.9367 0.0235194 44.7682C-0.0973962 46.5998 0.249326 48.432 1.0311 50.0927C1.8185 51.7109 2.9271 53.1518 4.28935 54.3276C5.65161 55.5035 7.23899 56.3897 8.95481 56.9323C12.3535 57.9663 15.9778 58.0017 19.3961 57.0342C21.9615 56.4207 24.3545 55.2341 26.3957 53.5635C28.4842 51.858 29.9186 49.4827 30.4558 46.8403C30.9724 43.8716 30.1429 40.8521 29.5244 37.8979C27.589 28.5627 28.142 28.0752 30.5867 19.4093C30.645 19.2565 30.6741 19.0964 30.7177 18.9436C30.7614 18.7908 30.7832 18.7181 30.8123 18.6016C30.8818 18.2591 30.9183 17.9107 30.9215 17.5611C30.5644 17.6939 30.1768 17.722 29.8043 17.6421C29.4318 17.5622 29.0898 17.3776 28.8186 17.11C28.5468 16.8247 28.3573 16.4712 28.2702 16.0869C28.1831 15.7025 28.2016 15.3018 28.3239 14.9272C28.4955 14.5175 28.7513 14.1484 29.0747 13.8438C29.3981 13.5392 29.7818 13.306 30.2011 13.1591C31.0088 12.8244 31.8746 12.6498 32.6677 12.2787C34.3485 11.4783 35.5127 9.81935 36.3058 8.08035C36.9578 6.87509 37.1591 5.47691 36.8733 4.13669Z" fill="#263238"/>
</svg>
