<svg width="3" height="7" viewBox="0 0 3 7" fill="none" xmlns="http://www.w3.org/2000/svg">
<path d="M2.88939 0.0212542C2.89583 0.014533 2.90356 0.0091839 2.91212 0.00552983C2.92069 0.00187576 2.9299 0 2.93921 0C2.94851 0 2.95773 0.00187576 2.96629 0.00552983C2.97485 0.0091839 2.98258 0.014533 2.98902 0.0212542C3.0037 0.0608002 3.0037 0.1043 2.98902 0.143846V0.986648C3.00059 1.04482 3.00059 1.10469 2.98902 1.16287C2.96848 1.21257 2.93384 1.25518 2.88939 1.28546L1.97738 1.81411V5.89785C1.97416 5.96155 1.95854 6.02402 1.93139 6.08174C1.90862 6.13007 1.87442 6.17215 1.83176 6.20433L1.14966 6.59508C1.13481 6.60465 1.11752 6.60974 1.09985 6.60974C1.08218 6.60974 1.06488 6.60465 1.05003 6.59508C1.03543 6.55289 1.03543 6.50702 1.05003 6.46483V2.38109L0.138018 2.9021C0.124136 2.91397 0.106471 2.92049 0.0882035 2.92049C0.0699362 2.92049 0.0522677 2.91397 0.0383857 2.9021C0.0123319 2.86374 -0.00106658 2.81819 6.63583e-05 2.77184V1.92905C0.000870888 1.86833 0.0139029 1.8084 0.0383857 1.75283C0.0589325 1.70313 0.0935641 1.66052 0.138018 1.63024L2.88939 0.0212542Z" fill="#F5F7FA"/>
</svg>
