<svg width="63" height="51" viewBox="0 0 63 51" fill="none" xmlns="http://www.w3.org/2000/svg">
<path d="M9.76565 39.1565C10.6758 36.0506 15.3491 20.6942 15.3491 20.6942C15.3491 20.6942 17.6461 33.2119 17.0393 34.7215C16.4812 36.0139 15.8219 37.2601 15.0674 38.4486C9.76565 46.5169 10.4591 50.5546 10.4591 50.5546L42.4936 49.5795C42.5658 45.1011 39.9149 34.6854 39.366 33.0241C38.817 31.3628 40.6445 25.9238 40.6445 25.9238C40.6445 25.9238 44.256 22.2472 44.126 20.3547C44.0574 18.6548 43.8472 16.9636 43.4976 15.2986L63 16.0209L62.386 2.80257L34.3748 0C33.3997 2.75201 24.5803 1.40129 24.5803 1.40129C15.0602 1.7191 14.4679 3.4671 10.5096 6.54415C6.55137 9.6212 0 36.0289 0 36.0289L9.76565 39.1565Z" fill="#4CAF4F"/>
</svg>
