<svg width="125" height="80" viewBox="0 0 125 80" fill="none" xmlns="http://www.w3.org/2000/svg">
<path d="M125 1.29048V7.56805L0 79.7566V73.5569C0.00517509 73.1573 0.0818989 72.7618 0.226539 72.3892C0.247615 72.3236 0.273648 72.2597 0.304412 72.1981C0.377858 72.0227 0.463002 71.8525 0.559269 71.6885C0.871918 71.1228 1.3255 70.6474 1.87603 70.3084L123.124 0.250112C123.326 0.0980051 123.57 0.0111101 123.823 0.000995613C124.076 -0.00911892 124.326 0.0580282 124.54 0.193495C124.597 0.235363 124.647 0.285456 124.689 0.342118C124.737 0.400367 124.777 0.464595 124.809 0.533206C124.852 0.602789 124.884 0.679424 124.901 0.75968C124.928 0.842571 124.947 0.927901 124.958 1.01446C124.98 1.10503 124.994 1.1974 125 1.29048Z" fill="#4CAF4F"/>
</svg>
