<svg width="15" height="8" viewBox="0 0 15 8" fill="none" xmlns="http://www.w3.org/2000/svg">
<path d="M14.2837 0C12.5829 1.19309 10.2889 0.228603 8.03071 0.500084C5.77248 0.771566 3.84298 1.32881 2.02782 1.27881C0.212661 1.2288 -0.67348 1.59315 0.598561 3.04344C1.8706 4.49372 5.50807 3.65785 6.49426 4.10079C6.77512 4.26476 7.01499 4.49045 7.19569 4.7608C7.3764 5.03115 7.49322 5.33907 7.53728 5.66122C7.58135 5.98338 7.55152 6.31132 7.45005 6.62025C7.34858 6.92917 7.17815 7.21097 6.95163 7.4443C5.88683 8.68025 13.0117 6.29407 13.9621 4.8295C14.9126 3.36493 15.5701 0.18575 14.2837 0Z" fill="#E8F5E9"/>
</svg>
