<svg width="2" height="2" viewBox="0 0 2 2" fill="none" xmlns="http://www.w3.org/2000/svg">
<path d="M0 1.00722C0.00158543 1.20301 0.0606479 1.39403 0.16986 1.55656C0.279073 1.7191 0.433626 1.84599 0.614336 1.9215C0.795047 1.99701 0.99395 2.0178 1.18638 1.9813C1.3788 1.9448 1.55629 1.85262 1.69677 1.71619C1.83726 1.57976 1.93458 1.40509 1.97665 1.21386C2.01873 1.02263 2.00369 0.823261 1.93343 0.640494C1.86317 0.457727 1.74077 0.299602 1.58141 0.185759C1.42206 0.0719157 1.23277 0.00736714 1.03704 0.000108881C0.902798 -0.0018502 0.769492 0.0226451 0.644719 0.0721994C0.519945 0.121754 0.40616 0.19539 0.309858 0.288911C0.213557 0.382433 0.136625 0.494004 0.0834608 0.617251C0.0302962 0.740498 0.00193149 0.873013 0 1.00722Z" fill="#263238"/>
</svg>
