<svg width="2" height="2" viewBox="0 0 2 2" fill="none" xmlns="http://www.w3.org/2000/svg">
<path d="M0.00170708 0.968227C-0.00593529 1.09689 0.0121359 1.22578 0.054851 1.34739C0.097566 1.469 0.164084 1.58088 0.250512 1.67652C0.33694 1.77215 0.441541 1.84963 0.558236 1.90442C0.674932 1.9592 0.80139 1.9902 0.9302 1.99562C1.12904 2.00966 1.32754 1.96393 1.50018 1.8643C1.67283 1.76468 1.81171 1.61572 1.89901 1.43656C1.98631 1.25741 2.01803 1.05624 1.99007 0.858933C1.96211 0.661621 1.87576 0.477175 1.74213 0.329305C1.6085 0.181434 1.43368 0.0769024 1.24015 0.0291311C1.04662 -0.0186401 0.843232 -0.00746341 0.65611 0.0612308C0.468988 0.129925 0.30669 0.252993 0.190079 0.414619C0.073468 0.576245 0.00785735 0.769041 0.00170708 0.968227Z" fill="#263238"/>
</svg>
