<svg width="3" height="3" viewBox="0 0 3 3" fill="none" xmlns="http://www.w3.org/2000/svg">
<path d="M2.99597 1.60976C2.97448 1.90266 2.86749 2.1828 2.68826 2.41545C2.50902 2.6481 2.26544 2.82301 1.98771 2.9185C1.70999 3.01399 1.41034 3.02584 1.12593 2.95261C0.841525 2.87937 0.584873 2.72426 0.38781 2.50651C0.190748 2.28876 0.06195 2.01793 0.0173781 1.72765C-0.0271939 1.43736 0.0144208 1.14039 0.137074 0.873541C0.259728 0.606696 0.458025 0.381731 0.707356 0.22654C0.956686 0.0713479 1.24608 -0.00724199 1.53966 0.000524789C1.94465 0.0249728 2.32394 0.207146 2.59618 0.507975C2.86843 0.808804 3.01195 1.20435 2.99597 1.60976Z" fill="#4CAF4F"/>
</svg>
