<svg width="4" height="6" viewBox="0 0 4 6" fill="none" xmlns="http://www.w3.org/2000/svg">
<path d="M0.961154 2.72246C0.961154 2.7895 0.961154 2.88633 0.961154 3.00551V3.75039C0.961154 3.87701 0.961154 3.9664 0.961154 4.03344C0.967668 4.13875 0.982618 4.24338 1.00586 4.3463C1.02771 4.42754 1.06572 4.50353 1.11762 4.56975C1.16973 4.62131 1.23829 4.65294 1.31134 4.65913C1.41256 4.65211 1.51017 4.61873 1.59447 4.56229C1.70048 4.50385 1.79614 4.42836 1.8776 4.33884C1.94684 4.25991 2.00916 4.17519 2.06387 4.08559C2.10678 4.00216 2.14171 3.91487 2.16819 3.82488C2.16819 3.73549 2.21289 3.661 2.22779 3.58651C2.23957 3.51815 2.25702 3.45088 2.27995 3.38541C2.30539 3.33358 2.34732 3.29166 2.39916 3.26622L3.05484 2.88633C3.06657 2.87727 3.08099 2.87237 3.09581 2.87237C3.11064 2.87237 3.12506 2.87727 3.13679 2.88633C3.13679 2.88633 3.13679 2.93848 3.13679 2.98317C3.13367 3.26091 3.09102 3.5368 3.01013 3.80253C2.93061 4.07949 2.82066 4.34679 2.68229 4.59955C2.54252 4.84623 2.37504 5.07613 2.18309 5.28482C2.00797 5.48831 1.79869 5.65974 1.56467 5.79135C1.37336 5.91645 1.15221 5.98843 0.9239 5.99992C0.747255 6.00201 0.57561 5.94129 0.439596 5.82859C0.292201 5.69647 0.18395 5.52641 0.126663 5.33697C0.0499687 5.09578 0.00733719 4.84507 0 4.5921C0 4.38353 0 4.16007 0 3.91426C0 3.66845 0 3.43754 0 3.21408C0.00976346 2.91733 0.0522403 2.62257 0.126663 2.33513C0.21894 2.04151 0.343903 1.75917 0.499204 1.49342C0.62883 1.22585 0.791537 0.975606 0.983508 0.748549C1.16872 0.533414 1.38764 0.349775 1.63173 0.204794C1.81911 0.0899274 2.03102 0.0210086 2.25015 0.00367553C2.42518 -0.0132659 2.60086 0.0286791 2.74935 0.122858C2.89813 0.222512 3.01259 0.365558 3.07719 0.53254C3.16556 0.744771 3.2087 0.973087 3.20385 1.20292C3.21441 1.24951 3.21441 1.29786 3.20385 1.34445C3.18467 1.38282 3.15657 1.41603 3.12189 1.44129L2.46622 1.82117C2.40661 1.82117 2.36936 1.82117 2.34701 1.82117C2.32085 1.7777 2.30315 1.72968 2.29485 1.67964C2.29485 1.6275 2.29485 1.56791 2.23525 1.50832C2.21546 1.45377 2.17895 1.40685 2.13093 1.37425C2.07393 1.34304 2.00962 1.32761 1.94466 1.32955C1.84441 1.34106 1.74783 1.37409 1.66153 1.42639C1.55456 1.48955 1.45887 1.57012 1.3784 1.66475C1.30259 1.76164 1.23762 1.86654 1.18468 1.97758C1.13855 2.09126 1.10119 2.2083 1.07292 2.32768C1.02685 2.45662 0.989514 2.58851 0.961154 2.72246Z" fill="#F5F7FA"/>
</svg>
