<svg width="23" height="23" viewBox="0 0 23 23" fill="none" xmlns="http://www.w3.org/2000/svg">
<path d="M20.396 7.93091L14.6932 7.1021L12.1439 1.93384C12.0743 1.79234 11.9597 1.67778 11.8182 1.60816C11.4633 1.43296 11.0321 1.57896 10.8546 1.93384L8.30532 7.1021L2.60249 7.93091C2.44526 7.95337 2.30151 8.02749 2.19145 8.1398C2.0584 8.27655 1.98508 8.46054 1.9876 8.65133C1.99013 8.84211 2.0683 9.02409 2.20493 9.15728L6.331 13.18L5.3562 18.8604C5.33334 18.9925 5.34796 19.1284 5.39841 19.2527C5.44885 19.3769 5.5331 19.4846 5.6416 19.5634C5.75011 19.6422 5.87852 19.689 6.01228 19.6985C6.14604 19.7081 6.2798 19.6799 6.39838 19.6173L11.4993 16.9355L16.6001 19.6173C16.7394 19.6915 16.9011 19.7162 17.0561 19.6892C17.4469 19.6218 17.7097 19.2512 17.6423 18.8604L16.6675 13.18L20.7936 9.15728C20.9059 9.04722 20.98 8.90347 21.0025 8.74624C21.0631 8.35318 20.7891 7.98931 20.396 7.93091Z" fill="black"/>
</svg>
