<svg width="23" height="23" viewBox="0 0 23 23" fill="none" xmlns="http://www.w3.org/2000/svg">
<g opacity="0.5" clip-path="url(#clip0_1_4531)">
<path d="M21.3669 10.0241L17.3117 9.39933L14.8404 5.3622C14.7107 5.15089 14.5286 4.97664 14.3118 4.8563C14.095 4.73597 13.8508 4.67362 13.6029 4.6753L3.24579 4.75782C2.94695 4.76035 2.65632 4.85589 2.41428 5.03118C2.17224 5.20648 1.99082 5.45281 1.89521 5.73595L0.718261 9.22598V17.2501H3.18923C3.38132 17.8746 3.76854 18.4209 4.29403 18.8091C4.81952 19.1972 5.4556 19.4066 6.10889 19.4066C6.76217 19.4066 7.39825 19.1972 7.92374 18.8091C8.44923 18.4209 8.83645 17.8746 9.02854 17.2501H13.6111C13.8032 17.8746 14.1904 18.4209 14.7159 18.8091C15.2414 19.1972 15.8775 19.4066 16.5308 19.4066C17.184 19.4066 17.8201 19.1972 18.3456 18.8091C18.8711 18.4209 19.2583 17.8746 19.4504 17.2501H22.2808V11.0897C22.2819 10.8319 22.1902 10.5823 22.0224 10.3866C21.8545 10.1909 21.6218 10.0622 21.3669 10.0241ZM10.062 6.14097L13.6143 6.11267L15.5954 9.34915L10.062 9.34722V6.14097ZM3.25729 6.19523L8.62451 6.15247V9.34673L2.19534 9.34444L3.25729 6.19523ZM6.10889 17.9689C5.78904 17.9689 5.47637 17.874 5.21042 17.6963C4.94448 17.5187 4.7372 17.2661 4.6148 16.9706C4.4924 16.6751 4.46037 16.3499 4.52277 16.0362C4.58517 15.7225 4.73919 15.4344 4.96536 15.2082C5.19153 14.982 5.47968 14.828 5.79339 14.7656C6.10709 14.7032 6.43225 14.7352 6.72776 14.8576C7.02326 14.98 7.27583 15.1873 7.45353 15.4532C7.63123 15.7192 7.72607 16.0319 7.72607 16.3517C7.7256 16.7805 7.55506 17.1915 7.25188 17.4947C6.94871 17.7979 6.53764 17.9684 6.10889 17.9689ZM16.5308 17.9689C16.2109 17.9689 15.8982 17.874 15.6323 17.6963C15.3664 17.5187 15.1591 17.2661 15.0367 16.9706C14.9143 16.6751 14.8822 16.3499 14.9446 16.0362C15.007 15.7225 15.1611 15.4344 15.3872 15.2082C15.6134 14.982 15.9016 14.828 16.2153 14.7656C16.529 14.7032 16.8541 14.7352 17.1496 14.8576C17.4451 14.98 17.6977 15.1873 17.8754 15.4532C18.0531 15.7192 18.1479 16.0319 18.1479 16.3517C18.1475 16.7805 17.9769 17.1915 17.6738 17.4947C17.3706 17.7979 16.9595 17.9684 16.5308 17.9689ZM20.8433 15.8126H19.5368C19.4106 15.1073 19.0402 14.4688 18.4907 14.0089C17.9411 13.549 17.2474 13.297 16.5308 13.297C15.8142 13.297 15.1204 13.549 14.5708 14.0089C14.0213 14.4688 13.651 15.1073 13.5247 15.8126H9.11497C8.98868 15.1073 8.61836 14.4688 8.06881 14.0089C7.51926 13.549 6.82548 13.297 6.10889 13.297C5.39229 13.297 4.69851 13.549 4.14896 14.0089C3.59941 14.4688 3.22909 15.1073 3.1028 15.8126H2.15576V10.7826L17.0036 10.8063L20.8433 11.3979V15.8126Z" fill="black" stroke="black" stroke-width="0.458539"/>
</g>
<defs>
<clipPath id="clip0_1_4531">
<rect width="22.0099" height="22.0099" fill="white" transform="scale(1.04499)"/>
</clipPath>
</defs>
</svg>
