<svg width="19" height="19" viewBox="0 0 19 19" fill="none" xmlns="http://www.w3.org/2000/svg">
<g opacity="0.7" clip-path="url(#clip0_1_4296)">
<path d="M12.1482 13.1646C12.0993 12.4995 12.0855 11.8322 12.1071 11.1657L12.1063 11.195C12.702 10.5774 13.0736 9.77799 13.1616 8.92446L13.1631 8.90783C13.4315 8.88566 13.8551 8.62441 13.9786 7.58892C14.0158 7.41058 14.0018 7.22533 13.938 7.05465C13.8743 6.88398 13.7634 6.73489 13.6184 6.62467L13.616 6.62308C14.053 5.30892 14.9602 1.24292 11.9369 0.823333C11.6257 0.277083 10.8293 0 9.79382 0C5.65102 0.076 5.15148 3.12787 6.05715 6.62308C5.91091 6.73431 5.79938 6.88489 5.73559 7.05719C5.6718 7.22949 5.65839 7.4164 5.69694 7.59604L5.69615 7.58971C5.82282 8.62362 6.24319 8.88646 6.51157 8.90862C6.6057 9.77166 6.98907 10.5775 7.59932 11.195C7.61938 11.8732 7.60406 12.5521 7.5534 13.2287L7.55736 13.1646C6.73561 15.3686 1.20344 14.7495 0.950109 19H18.7294C18.4744 14.7495 12.9676 15.3686 12.1474 13.1646H12.1482Z" fill="white"/>
</g>
<defs>
<clipPath id="clip0_1_4296">
<rect width="18.3415" height="18.3415" fill="white" transform="scale(1.0359)"/>
</clipPath>
</defs>
</svg>
