<svg width="23" height="23" viewBox="0 0 23 23" fill="none" xmlns="http://www.w3.org/2000/svg">
<g opacity="0.5">
<path d="M17.2504 9.58322L14.3754 11.0207L10.5421 8.14572L9.58376 13.4166L12.9379 16.2916L13.4171 20.6041M17.2504 8.14572V20.6041M9.58376 16.2916L7.66709 20.6041M8.14626 8.14572C6.70876 9.10406 5.75042 11.4999 5.75042 11.4999L7.66709 12.4582M11.5004 6.22906C12.0088 6.22906 12.4963 6.02712 12.8557 5.66768C13.2152 5.30823 13.4171 4.82072 13.4171 4.31239C13.4171 3.80406 13.2152 3.31655 12.8557 2.9571C12.4963 2.59766 12.0088 2.39572 11.5004 2.39572C10.9921 2.39572 10.5046 2.59766 10.1451 2.9571C9.78569 3.31655 9.58376 3.80406 9.58376 4.31239C9.58376 4.82072 9.78569 5.30823 10.1451 5.66768C10.5046 6.02712 10.9921 6.22906 11.5004 6.22906Z" stroke="black" stroke-width="1.83415" stroke-linecap="round" stroke-linejoin="round"/>
</g>
</svg>
