<svg width="23" height="23" viewBox="0 0 23 23" fill="none" xmlns="http://www.w3.org/2000/svg">
<g opacity="0.5">
<path d="M17.2505 9.58321L14.3755 11.0207L10.5421 8.14571L9.58381 13.4165L12.938 16.2915L13.4171 20.604M17.2505 8.14571V20.604M9.58381 16.2915L7.66714 20.604M8.14631 8.14571C6.70881 9.10404 5.75048 11.4999 5.75048 11.4999L7.66714 12.4582M11.5005 6.22905C12.0088 6.22905 12.4963 6.02711 12.8558 5.66767C13.2152 5.30823 13.4171 4.82071 13.4171 4.31238C13.4171 3.80405 13.2152 3.31654 12.8558 2.9571C12.4963 2.59765 12.0088 2.39572 11.5005 2.39572C10.9921 2.39572 10.5046 2.59765 10.1452 2.9571C9.78574 3.31654 9.58381 3.80405 9.58381 4.31238C9.58381 4.82071 9.78574 5.30823 10.1452 5.66767C10.5046 6.02711 10.9921 6.22905 11.5005 6.22905Z" stroke="black" stroke-width="1.83415" stroke-linecap="round" stroke-linejoin="round"/>
</g>
</svg>
