<svg width="23" height="23" viewBox="0 0 23 23" fill="none" xmlns="http://www.w3.org/2000/svg">
<g opacity="0.5">
<path d="M17.2503 9.5834L14.3753 11.0209L10.5419 8.1459L9.5836 13.4167L12.9378 16.2917L13.4169 20.6042M17.2503 8.1459V20.6042M9.5836 16.2917L7.66693 20.6042M8.1461 8.1459C6.7086 9.10423 5.75027 11.5001 5.75027 11.5001L7.66693 12.4584M11.5003 6.22923C12.0086 6.22923 12.4961 6.0273 12.8556 5.66785C13.215 5.30841 13.4169 4.8209 13.4169 4.31256C13.4169 3.80423 13.215 3.31672 12.8556 2.95728C12.4961 2.59783 12.0086 2.3959 11.5003 2.3959C10.9919 2.3959 10.5044 2.59783 10.145 2.95728C9.78554 3.31672 9.5836 3.80423 9.5836 4.31256C9.5836 4.8209 9.78554 5.30841 10.145 5.66785C10.5044 6.0273 10.9919 6.22923 11.5003 6.22923Z" stroke="black" stroke-width="1.83415" stroke-linecap="round" stroke-linejoin="round"/>
</g>
</svg>
