<svg width="23" height="23" viewBox="0 0 23 23" fill="none" xmlns="http://www.w3.org/2000/svg">
<g clip-path="url(#clip0_1_4919)">
<path d="M22.1327 0.868631C21.5537 0.289456 20.8598 0 20.0515 0H2.95105C2.14242 0 1.44875 0.289561 0.869579 0.868631C0.290509 1.44754 0.00105238 2.14132 0.00105238 2.94979V20.0501C0.00105238 20.8584 0.290456 21.5523 0.869579 22.1313C1.44875 22.7103 2.14258 23 2.95105 23H20.0513C20.8595 23 21.5536 22.7103 22.1326 22.1313C22.7118 21.5523 23.0009 20.8584 23.0009 20.0501V2.94979C23.0009 2.14116 22.7118 1.44775 22.1327 0.868631ZM8.25945 8.28797C9.1628 7.41462 10.2485 6.97774 11.5163 6.97774C12.7939 6.97774 13.8844 7.41462 14.788 8.28797C15.6915 9.16148 16.1431 10.2172 16.1431 11.4551C16.1431 12.6927 15.6915 13.7485 14.788 14.6218C13.8844 15.4955 12.7942 15.9323 11.5163 15.9323C10.2485 15.9323 9.16295 15.4951 8.25945 14.6218C7.35588 13.7484 6.90416 12.6927 6.90416 11.4551C6.90416 10.2172 7.35588 9.16153 8.25945 8.28797ZM20.3959 19.4364C20.3959 19.6957 20.3058 19.9127 20.1263 20.0876C19.9462 20.2622 19.7319 20.3496 19.4821 20.3496H3.47521C3.2157 20.3496 2.99841 20.2622 2.82387 20.0876C2.64906 19.9131 2.56174 19.6957 2.56174 19.4364V9.73289H4.673C4.47344 10.3619 4.37363 11.0159 4.37363 11.6945C4.37363 13.6116 5.07233 15.246 6.46989 16.5989C7.86761 17.9513 9.54965 18.6278 11.5162 18.6278C12.814 18.6278 14.0118 18.3182 15.1103 17.6994C16.2083 17.0801 17.0763 16.2393 17.7156 15.176C18.3546 14.1128 18.674 12.9523 18.674 11.6946C18.674 11.0159 18.5739 10.3621 18.3743 9.73295H20.396V19.4364H20.3959V19.4364ZM20.3959 6.06426C20.3959 6.35377 20.2961 6.59839 20.0961 6.798C19.8965 6.99777 19.6521 7.09753 19.3624 7.09753H16.757C16.4677 7.09753 16.2229 6.99772 16.0233 6.798C15.8237 6.59839 15.7239 6.35377 15.7239 6.06426V3.59379C15.7239 3.31425 15.8237 3.0722 16.0233 2.8675C16.2229 2.6629 16.4678 2.56047 16.757 2.56047H19.3624C19.6521 2.56047 19.8966 2.66285 20.0961 2.8675C20.296 3.0722 20.3959 3.31425 20.3959 3.59379V6.06426Z" fill="#808080"/>
</g>
<defs>
<clipPath id="clip0_1_4919">
<rect width="22.0099" height="22.0099" fill="white" transform="scale(1.04499)"/>
</clipPath>
</defs>
</svg>
