<svg width="23" height="23" viewBox="0 0 23 23" fill="none" xmlns="http://www.w3.org/2000/svg">
<g clip-path="url(#clip0_1_4920)">
<path d="M23 4.36862C22.1447 4.7438 21.2333 4.99249 20.2831 5.11324C21.2606 4.52962 22.0067 3.61249 22.3574 2.50705C21.4461 3.05043 20.4398 3.43424 19.3674 3.64843C18.5021 2.72699 17.2687 2.1563 15.9232 2.1563C13.3127 2.1563 11.2111 4.27518 11.2111 6.87274C11.2111 7.24649 11.2427 7.60587 11.3203 7.94799C7.40025 7.7568 3.93156 5.87799 1.60137 3.01593C1.19456 3.72174 0.955937 4.52962 0.955937 5.3993C0.955937 7.0323 1.79687 8.47987 3.05037 9.31793C2.29281 9.30355 1.54962 9.08362 0.92 8.73718C0.92 8.75155 0.92 8.77024 0.92 8.78893C0.92 11.0803 2.55444 12.9836 4.69775 13.422C4.31394 13.5269 3.89562 13.5772 3.4615 13.5772C3.15962 13.5772 2.85487 13.56 2.56881 13.4967C3.17975 15.3641 4.91337 16.7369 6.97475 16.7814C5.3705 18.0364 3.33356 18.7925 1.12844 18.7925C0.74175 18.7925 0.370875 18.7752 0 18.7278C2.08869 20.0747 4.56406 20.8438 7.2335 20.8438C15.9102 20.8438 20.654 13.6563 20.654 7.42618C20.654 7.21774 20.6468 7.01649 20.6367 6.81668C21.5726 6.15255 22.3589 5.32312 23 4.36862Z" fill="#808080"/>
</g>
<defs>
<clipPath id="clip0_1_4920">
<rect width="22.0099" height="22.0099" fill="white" transform="scale(1.04499)"/>
</clipPath>
</defs>
</svg>
