<svg width="29" height="29" viewBox="0 0 29 29" fill="none" xmlns="http://www.w3.org/2000/svg">
<g clip-path="url(#clip0_1_5056)">
<path d="M27.7674 6.45257C26.9808 5.05333 26.1271 4.79595 24.3889 4.69808C22.6526 4.58026 18.2863 4.53133 14.5036 4.53133C10.7137 4.53133 6.34555 4.58026 4.61099 4.69626C2.87643 4.79595 2.02093 5.05151 1.22706 6.45257C0.416874 7.85001 0 10.257 0 14.4946C0 14.4982 0 14.5001 0 14.5001C0 14.5037 0 14.5055 0 14.5055V14.5091C0 18.7286 0.416874 21.1537 1.22706 22.5367C2.02093 23.9359 2.87462 24.1897 4.60918 24.3075C6.34555 24.409 10.7137 24.4688 14.5036 24.4688C18.2863 24.4688 22.6526 24.409 24.3908 24.3093C26.1289 24.1915 26.9826 23.9377 27.7693 22.5385C28.5867 21.1555 28.9999 18.7304 28.9999 14.5109C28.9999 14.5109 28.9999 14.5055 28.9999 14.5019C28.9999 14.5019 28.9999 14.4982 28.9999 14.4964C28.9999 10.257 28.5867 7.85001 27.7674 6.45257ZM10.875 19.9375V9.06257L19.9375 14.5001L10.875 19.9375Z" fill="#808080"/>
</g>
<defs>
<clipPath id="clip0_1_5056">
<rect width="28.8354" height="28.8354" fill="white" transform="scale(1.00571)"/>
</clipPath>
</defs>
</svg>
