<svg width="125" height="167" viewBox="0 0 125 167" fill="none" xmlns="http://www.w3.org/2000/svg">
<path d="M123.959 0.629845C124.313 0.629845 124.363 1.06861 124.363 1.33754V92.9198C124.326 93.4582 124.167 93.9811 123.897 94.4484C123.627 94.9158 123.254 95.3152 122.806 95.6161L1.55737 165.678C1.46557 165.734 1.36069 165.766 1.25297 165.77C0.920263 165.77 0.630025 165.253 0.630025 164.658V73.5079C0.663048 72.9686 0.82091 72.4443 1.09117 71.9764C1.36143 71.5085 1.73669 71.1097 2.18739 70.8116L123.436 0.799692C123.592 0.698007 123.773 0.63942 123.959 0.629845ZM123.959 0C123.663 0.00799956 123.374 0.0960357 123.124 0.254769L1.86884 70.2596C1.32417 70.6164 0.871165 71.0963 0.546497 71.6607C0.221828 72.225 0.0346128 72.8578 0 73.5079V164.637C0 165.578 0.523842 166.385 1.25297 166.385C1.4734 166.381 1.68862 166.317 1.87592 166.201L123.117 96.1398C123.665 95.7865 124.121 95.3087 124.448 94.7453C124.775 94.1819 124.964 93.5491 125 92.8986V1.33754C125 0.488306 124.575 0 123.959 0Z" fill="#E0E0E0"/>
</svg>
