<svg width="67" height="40" viewBox="0 0 67 40" fill="none" xmlns="http://www.w3.org/2000/svg">
<path d="M29.0728 39.9716C28.4482 39.9648 27.8449 39.7441 27.3633 39.3464C26.8818 38.9486 26.5512 38.3979 26.4266 37.786L25.8111 34.5464C24.4216 34.2927 23.0488 33.9549 21.7003 33.5349H21.5941L15.8914 36.1803C15.4228 36.3829 14.9142 36.4761 14.4042 36.4528C13.8942 36.4295 13.3962 36.2904 12.948 36.0459L7.28767 32.7639C6.9461 32.5804 6.65775 32.3119 6.45057 31.9842C6.24339 31.6566 6.12442 31.281 6.1052 30.8939C6.08598 30.5067 6.16716 30.1212 6.34087 29.7746C6.51457 29.4281 6.77491 29.1323 7.09663 28.916L10.5353 26.4403C10.2231 26.0247 9.93715 25.59 9.67915 25.1388L2.43394 24.6861C1.77629 24.6448 1.15893 24.3551 0.706979 23.8757C0.25503 23.3963 0.00229595 22.7631 0 22.1043V17.8603C0.000385039 17.2014 0.251335 16.5674 0.70198 16.0867C1.15263 15.6059 1.76925 15.3145 2.42686 15.2714L9.67208 14.8116C9.93014 14.3627 10.2161 13.9304 10.5282 13.5172L7.0754 11.0628C6.75369 10.8464 6.49335 10.5506 6.31964 10.2041C6.14594 9.85753 6.06476 9.47201 6.08398 9.08487C6.1032 8.69773 6.22217 8.32211 6.42934 7.99446C6.63652 7.66682 6.92487 7.39826 7.26644 7.21483L12.9268 3.9328C13.4195 3.65765 13.9756 3.5162 14.54 3.52253C14.9982 3.51593 15.4523 3.61012 15.8701 3.7984L21.58 6.44384H21.6507C23.0157 6.02062 24.405 5.68047 25.8111 5.42527L26.4266 2.18567C26.55 1.57317 26.8803 1.02169 27.3621 0.623734C27.8439 0.225781 28.4479 0.00556186 29.0728 0H37.4289C38.0535 0.00687014 38.6568 0.227555 39.1384 0.625289C39.6199 1.02302 39.9505 1.57377 40.0751 2.18567L40.6906 5.42527C42.0769 5.67998 43.4472 6.01536 44.7944 6.4297H44.9005L50.6104 3.78424C51.0259 3.59675 51.4776 3.5026 51.9335 3.50839C52.5001 3.50115 53.0588 3.6426 53.5537 3.91864L59.2141 7.20069C59.5544 7.38488 59.8417 7.65346 60.0483 7.98065C60.2548 8.30784 60.3738 8.68264 60.3937 9.06905C60.4136 9.45545 60.3338 9.84049 60.1619 10.1872C59.99 10.5338 59.7318 10.8305 59.4122 11.0486L55.9665 13.5243C56.2792 13.9385 56.5675 14.3707 56.8297 14.8187L64.0749 15.2785C64.7325 15.3216 65.3491 15.613 65.7998 16.0937C66.2504 16.5745 66.5013 17.2085 66.5017 17.8673V22.1114C66.4997 22.7697 66.2482 23.4028 65.7979 23.8832C65.3475 24.3636 64.7319 24.6555 64.0749 24.7002L56.8297 25.1529C56.5692 25.6043 56.2809 26.0389 55.9665 26.4544L59.4122 28.9301C59.7318 29.1483 59.99 29.4449 60.1619 29.7916C60.3338 30.1382 60.4136 30.5233 60.3937 30.9097C60.3738 31.2961 60.2548 31.6709 60.0483 31.9981C59.8417 32.3252 59.5544 32.5938 59.2141 32.778L53.5537 36.0601C53.0575 36.3328 52.4997 36.474 51.9335 36.4703C51.4779 36.4726 51.027 36.3786 50.6104 36.1945L44.9005 33.549H44.8298C43.4674 33.9746 42.0804 34.3171 40.6765 34.5747L40.0609 37.8072C39.9378 38.4204 39.6078 38.9728 39.1261 39.3719C38.6445 39.771 38.0403 39.9927 37.4147 39.9999L29.0728 39.9716ZM33.2544 16.1485C30.2326 16.0773 27.2431 16.7837 24.5729 18.1998C22.6271 19.3245 21.5092 20.7603 21.5092 22.1538C21.5092 23.5473 22.6271 24.9832 24.5729 26.1078C27.2692 27.4567 30.2429 28.159 33.2579 28.159C36.273 28.159 39.2467 27.4567 41.943 26.1078C43.8887 24.9832 44.9996 23.5473 44.9996 22.1538C44.9996 20.7603 43.8887 19.3245 41.943 18.1998C39.2699 16.7846 36.2784 16.0783 33.2544 16.1485Z" fill="#E0E0E0"/>
</svg>
