<svg width="34" height="34" viewBox="0 0 34 34" fill="none" xmlns="http://www.w3.org/2000/svg">
<path d="M3.89582 11.6875V12.0417H4.24999H29.75H30.1042V11.6875V10.0938C30.1042 9.29534 29.787 8.52963 29.2224 7.96506C28.6579 7.4005 27.8922 7.08333 27.0937 7.08333H6.90624C6.10783 7.08333 5.34211 7.4005 4.77755 7.96506C4.21299 8.52963 3.89582 9.29534 3.89582 10.0938V11.6875ZM30.1042 13.8125V13.4583H29.75H4.24999H3.89582V13.8125V23.9063C3.89582 24.7047 4.21299 25.4704 4.77755 26.0349C5.34211 26.5995 6.10783 26.9167 6.90624 26.9167H27.0937C27.8922 26.9167 28.6579 26.5995 29.2224 26.0349C29.787 25.4704 30.1042 24.7047 30.1042 23.9063V13.8125ZM2.47915 10.0938C2.47915 8.91961 2.94558 7.79357 3.77582 6.96333C4.60606 6.13309 5.7321 5.66667 6.90624 5.66667H27.0937C28.2679 5.66667 29.3939 6.13309 30.2242 6.96333C31.0544 7.79357 31.5208 8.91961 31.5208 10.0938V23.9063C31.5208 25.0804 31.0544 26.2064 30.2242 27.0367C29.3939 27.8669 28.2679 28.3333 27.0937 28.3333H6.90624C5.7321 28.3333 4.60606 27.8669 3.77582 27.0367C2.94558 26.2064 2.47915 25.0804 2.47915 23.9063V10.0938ZM22.3125 20.5417H25.5C25.6879 20.5417 25.868 20.6163 26.0009 20.7491C26.1337 20.882 26.2083 21.0621 26.2083 21.25C26.2083 21.4379 26.1337 21.618 26.0009 21.7509C25.868 21.8837 25.6879 21.9583 25.5 21.9583H22.3125C22.1246 21.9583 21.9445 21.8837 21.8116 21.7509C21.6788 21.618 21.6042 21.4379 21.6042 21.25C21.6042 21.0621 21.6788 20.882 21.8116 20.7491C21.9445 20.6163 22.1246 20.5417 22.3125 20.5417Z" fill="#4CAF4F" stroke="#4CAF4F" stroke-width="0.696069"/>
</svg>
