<svg width="34" height="34" viewBox="0 0 34 34" fill="none" xmlns="http://www.w3.org/2000/svg">
<path d="M16.9929 7.08333C14.4633 7.08333 12.404 9.1615 12.404 11.7019C12.404 13.309 13.2292 14.728 14.4754 15.5551C12.9702 16.0584 11.6679 16.9989 10.7127 18.2294C10.1846 17.8232 9.59449 17.4965 8.95835 17.2624C9.92301 16.5463 10.5534 15.3959 10.5534 14.1029C10.5534 11.9483 8.81083 10.1845 6.66932 10.1845C4.5278 10.1845 2.78525 11.9483 2.78525 14.1029C2.78525 15.3966 3.41616 16.5475 4.38163 17.2637C1.82555 18.2069 3.10552e-05 20.6764 3.10552e-05 23.5827V25.6243C0.000292676 25.7799 0.0625462 25.929 0.172927 26.0386C0.283307 26.1484 0.432666 26.2096 0.588299 26.2091H9.54515C9.56686 26.2115 9.58857 26.2128 9.61028 26.2125H24.3761C24.3978 26.2128 24.4198 26.2115 24.4412 26.2091H33.3987C33.7207 26.2078 33.9815 25.9465 33.9823 25.6243V23.5827C33.9823 20.6764 32.1599 18.2069 29.6052 17.2634C30.5706 16.5475 31.2016 15.3963 31.2016 14.1026C31.2016 11.9481 29.459 10.1843 27.3175 10.1843C25.176 10.1843 23.4334 11.9481 23.4334 14.1026C23.4334 15.3956 24.0641 16.5462 25.0287 17.2622C24.3913 17.4968 23.8009 17.8245 23.272 18.2318C22.3173 17.0005 21.0168 16.0587 19.5117 15.5551C20.7575 14.728 21.5831 13.309 21.5831 11.7019C21.5831 9.1615 19.5227 7.08333 16.9931 7.08333H16.9929ZM16.9929 8.25517C18.8849 8.25517 20.4101 9.79061 20.4101 11.7019C20.4101 13.5983 18.9086 15.1188 17.0377 15.1431C17.0227 15.1431 17.0081 15.1411 16.9929 15.1411C16.9778 15.1411 16.9634 15.1431 16.9482 15.1431C15.0772 15.1191 13.5768 13.5983 13.5768 11.7019C13.5768 9.79034 15.1007 8.25517 16.9927 8.25517H16.9929ZM6.66939 11.3563C8.17054 11.3563 9.38162 12.5747 9.38162 14.1028C9.38162 15.6207 8.18621 16.8339 6.69918 16.8503C6.68924 16.8503 6.67957 16.8493 6.66937 16.8493C6.65943 16.8493 6.64975 16.8503 6.63955 16.8503C5.15252 16.8339 3.95711 15.6205 3.95711 14.1028C3.95711 12.5748 5.16819 11.3563 6.66934 11.3563H6.66939ZM27.3171 11.3563C28.8183 11.3563 30.0294 12.5747 30.0294 14.1028C30.0294 15.6207 28.834 16.8339 27.3469 16.8503C27.337 16.8503 27.3273 16.8493 27.3171 16.8493C27.3072 16.8493 27.2975 16.8503 27.2873 16.8503C25.8003 16.8339 24.6049 15.6205 24.6049 14.1028C24.6049 12.5748 25.8159 11.3563 27.3171 11.3563H27.3171ZM16.9481 16.3149C16.963 16.3152 16.9776 16.317 16.9928 16.317C17.0077 16.317 17.0224 16.3149 17.0375 16.3149C20.7897 16.339 23.7927 19.3677 23.7927 23.1591L23.7924 25.0403H10.1937V23.1591C10.1937 19.3674 13.1958 16.339 16.9475 16.3149H16.9481ZM6.62452 18.0235C6.63943 18.0238 6.65408 18.0256 6.66925 18.0256C6.68442 18.0256 6.69881 18.0235 6.71398 18.0235C7.98311 18.0337 9.14135 18.4713 10.0636 19.2035C9.40368 20.3711 9.02203 21.719 9.02203 23.1594V25.0362H1.17139V23.5826C1.17139 20.5013 3.59408 18.0476 6.62438 18.0233L6.62452 18.0235ZM27.2723 18.0235C27.2874 18.0238 27.3018 18.0256 27.317 18.0256C27.3322 18.0256 27.3466 18.0235 27.3617 18.0235C30.392 18.0476 32.8147 20.5017 32.8147 23.5829V25.0362H24.9601L24.9598 23.1594C24.9598 21.7198 24.5792 20.373 23.9206 19.2055C24.8431 18.4724 26.0021 18.0337 27.2723 18.0235H27.2723Z" fill="#103E13"/>
</svg>
