<svg width="29" height="19" viewBox="0 0 29 19" fill="none" xmlns="http://www.w3.org/2000/svg">
<g clip-path="url(#clip0_211_2073)">
<path d="M27.0486 0.593748C27.0486 0.921669 27.3177 1.1875 27.6497 1.1875H28.2508C28.5828 1.1875 28.8519 0.921669 28.8519 0.593748C28.8519 0.265831 28.5828 0 28.2508 0H27.6497C27.3177 0 27.0486 0.265831 27.0486 0.593748Z" fill="#212326"/>
<path d="M9.61728 19H12.5372L11.6872 18.1603C11.4617 17.9376 11.1559 17.8125 10.8371 17.8125H9.61728C4.96973 17.8125 1.20216 14.0909 1.20216 9.5C1.20216 4.90912 4.96973 1.1875 9.61728 1.1875H19.2346C23.8821 1.1875 27.6497 4.90912 27.6497 9.5C27.6497 14.0909 23.8821 17.8125 19.2346 17.8125H15.6369C15.1587 17.8125 14.7 17.6248 14.3618 17.2908L13.366 16.307C12.8023 15.7503 12.0379 15.4375 11.2408 15.4375H9.61728C6.29759 15.4375 3.60648 12.7792 3.60648 9.5C3.60648 6.22079 6.29759 3.5625 9.61728 3.5625H19.2346C22.5543 3.5625 25.2454 6.22079 25.2454 9.5C25.2454 12.7792 22.5543 15.4375 19.2346 15.4375H16.9245C16.4463 15.4375 15.9876 15.2498 15.6494 14.9158L14.6535 13.932C14.0899 13.3753 13.3255 13.0625 12.5284 13.0625H9.61728C7.62549 13.0625 6.0108 11.4675 6.0108 9.5C6.0108 7.5325 7.62549 5.9375 9.61728 5.9375H19.2346C21.2263 5.9375 22.841 7.5325 22.841 9.5C22.841 11.4435 21.2655 13.0235 19.3073 13.0618L19.3069 13.0625H18.4272C17.949 13.0625 17.4903 12.8748 17.1521 12.5408L16.1562 11.557C15.6938 11.1002 15.0961 10.8076 14.4561 10.7173L14.4259 10.6875H9.61728C8.95335 10.6875 8.41512 10.1558 8.41512 9.5C8.41512 8.84416 8.95335 8.3125 9.61728 8.3125H19.2346C19.8985 8.3125 20.4367 8.84416 20.4367 9.5C20.4367 10.1558 19.8985 10.6875 19.2346 10.6875H16.8302L17.6803 11.5272C17.9057 11.7499 18.2115 11.875 18.5303 11.875H19.2346C20.5624 11.875 21.6389 10.8117 21.6389 9.5C21.6389 8.18833 20.5624 7.125 19.2346 7.125H9.61728C8.28942 7.125 7.21296 8.18833 7.21296 9.5C7.21296 10.8117 8.28942 11.875 9.61728 11.875H14.0311C14.5093 11.875 14.968 12.0627 15.3062 12.3967L16.3021 13.3805C16.8657 13.9372 17.6302 14.25 18.4272 14.25H19.5351V14.2409C22.0508 14.0876 24.0432 12.0236 24.0432 9.5C24.0432 6.87667 21.8903 4.75 19.2346 4.75H9.61728C6.96156 4.75 4.80864 6.87667 4.80864 9.5C4.80864 12.1234 6.96156 14.25 9.61728 14.25H12.5284C13.0066 14.25 13.4653 14.4377 13.8035 14.7717L14.7994 15.7555C15.363 16.3122 16.1275 16.625 16.9245 16.625H19.2346C23.2182 16.625 26.4475 13.435 26.4475 9.5C26.4475 5.56495 23.2182 2.375 19.2346 2.375H9.61728C5.63366 2.375 2.40432 5.56495 2.40432 9.5C2.40432 13.435 5.63366 16.625 9.61728 16.625H11.2408C11.719 16.625 12.1777 16.8127 12.5159 17.1467L13.5118 18.1305C14.0754 18.6872 14.8398 19 15.6369 19H19.2346C24.546 19 28.8518 14.7467 28.8518 9.5C28.8518 4.25329 24.546 -4.58681e-07 19.2346 0L9.61728 1.963e-06C4.3058 2.42169e-06 -4.64344e-07 4.2533 0 9.5C4.64344e-07 14.7467 4.30581 19 9.61728 19Z" fill="#212326"/>
</g>
<defs>
<clipPath id="clip0_211_2073">
<rect width="28.5388" height="18.7939" fill="white" transform="scale(1.01097)"/>
</clipPath>
</defs>
</svg>
