<svg width="33" height="21" viewBox="0 0 33 21" fill="none" xmlns="http://www.w3.org/2000/svg">
<g clip-path="url(#clip0_211_2057)">
<path d="M30.8912 2.50285C30.8912 2.52659 30.8912 2.55627 30.8851 2.57408C30.8541 2.80556 30.8541 3.03704 30.8726 3.27446C30.885 3.33381 30.8974 3.39317 30.9469 3.44065C31.0273 3.52968 31.1509 3.51187 31.2004 3.40504C31.2252 3.35162 31.2252 3.2982 31.2128 3.24478C31.1509 3.01923 31.1386 2.78182 31.1324 2.55033C31.1324 2.53846 31.1324 2.52066 31.1324 2.50285C31.2004 2.49692 31.2623 2.49098 31.3179 2.49098C31.3612 2.48505 31.3983 2.47911 31.4293 2.4613C31.522 2.41382 31.522 2.31292 31.423 2.26544C31.3859 2.24763 31.3365 2.24169 31.2932 2.24169C31.1386 2.24763 30.984 2.24763 30.8294 2.24763C30.7737 2.24763 30.7181 2.25357 30.6624 2.2595C30.6315 2.26544 30.5944 2.26544 30.5697 2.28324C30.5263 2.30105 30.5016 2.33072 30.5016 2.37227C30.5078 2.41382 30.5263 2.43756 30.5697 2.45537C30.5944 2.47318 30.6253 2.47911 30.6562 2.47911C30.7304 2.48505 30.8108 2.49692 30.8912 2.50285ZM32.5919 2.77588C32.5919 2.78182 32.598 2.78775 32.598 2.78775C32.6228 2.94801 32.6475 3.10233 32.6661 3.25665C32.6723 3.31007 32.6785 3.35755 32.7156 3.3991C32.7959 3.5 32.9196 3.48813 32.9753 3.3813C33 3.32787 33.0062 3.27446 32.9938 3.2151C32.9567 3.03704 32.9382 2.85898 32.9011 2.68685C32.8763 2.58001 32.8454 2.47911 32.8145 2.38415C32.7959 2.32479 32.7527 2.28324 32.6785 2.27731C32.6043 2.26544 32.5486 2.30105 32.5177 2.35447C32.4806 2.40195 32.4496 2.44943 32.4249 2.50285C32.3816 2.59782 32.3445 2.69279 32.295 2.78182C32.2888 2.80556 32.2826 2.82337 32.2703 2.84117C32.2641 2.8293 32.2579 2.82337 32.2579 2.82337C32.1775 2.67498 32.1033 2.52659 32.0229 2.38415C32.0105 2.37227 32.0044 2.3604 31.9982 2.34853C31.9611 2.29511 31.9178 2.26544 31.8498 2.26544C31.7879 2.27137 31.7384 2.30698 31.7076 2.3604C31.6952 2.38415 31.6952 2.40195 31.689 2.42569C31.6642 2.61563 31.6333 2.80556 31.6086 2.99549C31.5962 3.10233 31.59 3.20916 31.59 3.316C31.5838 3.33974 31.59 3.36942 31.6024 3.39317C31.6148 3.44064 31.6519 3.47033 31.7013 3.47626C31.7632 3.4822 31.8065 3.46439 31.825 3.4169C31.8436 3.3813 31.8498 3.35162 31.856 3.32194C31.8807 3.2151 31.8992 3.1142 31.9178 3.0133C31.9302 2.95394 31.9363 2.90646 31.9549 2.84117C31.9673 2.86491 31.9796 2.88272 31.992 2.90052C32.0476 2.97175 32.1033 3.04298 32.1713 3.10233C32.2394 3.14981 32.295 3.14388 32.3507 3.09046C32.3631 3.07859 32.3692 3.07265 32.3816 3.06078C32.4373 2.97768 32.5053 2.89459 32.5609 2.81149C32.5733 2.79962 32.5795 2.78775 32.5919 2.77588Z" fill="#3A3B7B"/>
<path d="M18.3427 2.61946C18.2997 2.73226 18.2915 2.81353 18.3113 2.88107C18.3333 2.97292 18.3902 3.00299 18.4674 2.97963C19.1938 2.80724 20.7866 3.29657 21.3763 3.43295C21.5154 3.46159 21.6285 3.28928 21.5336 3.13479C21.3951 2.98517 19.803 2.34463 19.1955 2.3097C18.9574 2.29679 18.5317 2.23818 18.3427 2.61946Z" fill="#3A3B7B"/>
<path d="M24.5677 0.545941C24.6451 0.588826 24.6883 0.629734 24.7097 0.675442C24.7415 0.735398 24.7247 0.77688 24.6713 0.798047C24.1911 1.02296 23.5522 1.99126 23.2943 2.32521C23.2318 2.40204 23.0876 2.35739 23.0658 2.23106C23.0703 2.08821 23.6366 1.03739 23.9527 0.751187C24.0769 0.639443 24.2822 0.420188 24.5677 0.545941Z" fill="#3A3B7B"/>
<path d="M20.7439 0.0693205C20.8369 0.00204491 20.9336 -0.0215305 20.9829 0.0221902C21.7074 0.616821 22.0915 1.55847 22.3294 2.42053C22.3384 2.44061 22.3389 2.46943 22.3318 2.4995C22.3288 2.5252 22.3092 2.55234 22.2782 2.57335C22.245 2.59654 22.2164 2.6036 22.203 2.58362C21.8855 2.16913 20.072 0.556439 20.7439 0.0693205Z" fill="#3A3B7B"/>
<path d="M5.40304 10.3787C5.57667 10.2546 5.76543 10.1514 5.96517 10.0712C6.17416 10.0139 6.39691 10.0234 6.59976 10.0983C6.80257 10.1733 6.9745 10.3096 7.08944 10.4866C7.19225 10.6632 7.23247 10.8671 7.20409 11.0676C7.17571 11.268 7.08024 11.4542 6.93203 11.5981C6.81714 11.7147 6.68669 11.8162 6.54418 11.9002C5.90898 12.2941 5.26812 12.6663 4.62729 13.0602C4.49616 13.1587 4.35706 13.2472 4.21131 13.3245C3.98961 13.4306 3.73625 13.4591 3.49502 13.4049C3.2538 13.3507 3.03989 13.2173 2.89029 13.0278C2.77845 12.8936 2.68407 12.7469 2.60922 12.5908C2.00211 11.3661 1.37253 10.1467 0.787903 8.9004C0.518076 8.36091 0.298845 7.74043 0.0852333 7.14157C-0.00718486 6.96757 -0.025232 6.76585 0.0349346 6.57926C0.0951013 6.39268 0.228735 6.23598 0.407409 6.1425C0.586085 6.04903 0.795701 6.02617 0.991683 6.07874C1.18767 6.13131 1.35455 6.25519 1.45684 6.424C1.77126 6.82504 2.04959 7.25101 2.2888 7.69731C2.89591 8.77634 3.47491 9.85537 4.05953 10.9021C4.09357 10.9599 4.13111 11.0157 4.17196 11.0693C4.61199 10.8917 5.02585 10.6596 5.40304 10.3787Z" fill="#3A3B7B"/>
<path d="M11.6802 10.0023C10.2917 11.5615 7.96445 11.1677 6.79521 9.16064C5.96323 7.7363 5.81709 5.38397 7.62719 3.90028C8.01371 3.58966 8.4759 3.37806 8.97066 3.28522C9.5773 3.20175 10.1959 3.30446 10.738 3.57869C11.2802 3.85291 11.7181 4.28461 11.9894 4.81208C12.9787 6.53857 12.8382 8.73981 11.6802 10.0023ZM11.118 6.36591C10.9705 5.94165 10.6746 5.57944 10.2804 5.34079C10.0574 5.18822 9.78638 5.11403 9.51304 5.13074C9.23966 5.14745 8.98066 5.25402 8.77955 5.43251C7.97571 6.11773 7.80704 7.74171 8.39165 8.70746C8.46619 8.86494 8.57561 9.00488 8.71237 9.11751C8.84913 9.23015 9.00989 9.31276 9.18337 9.35949C9.35686 9.40628 9.53888 9.41609 9.71675 9.38828C9.89462 9.36042 10.064 9.29563 10.213 9.19841C10.6488 8.87415 10.9684 8.42767 11.1276 7.92103C11.2868 7.41435 11.2776 6.87268 11.1012 6.37132L11.118 6.36591Z" fill="#3A3B7B"/>
<path d="M17.3464 7.0457C17.2043 7.07504 17.0575 7.0768 16.9146 7.05084C16.7717 7.02488 16.6357 6.9718 16.5145 6.89465C16.4085 6.83644 16.3172 6.75643 16.2473 6.66031C16.1773 6.56419 16.1305 6.45442 16.1101 6.33883C16.0896 6.22327 16.0962 6.10481 16.1291 5.99194C16.1621 5.87907 16.2208 5.77462 16.3009 5.68609C16.4405 5.50821 16.6385 5.38085 16.863 5.32463C17.4492 5.16136 18.0525 5.06182 18.6619 5.0279C18.7958 5.01296 18.9314 5.02383 19.0608 5.05988C19.1902 5.09598 19.3108 5.15646 19.4156 5.23791C19.5203 5.31931 19.607 5.42 19.6707 5.53403C19.7343 5.64806 19.7735 5.77314 19.7861 5.90193C19.9618 6.53453 19.981 7.19781 19.8423 7.83884C19.3364 9.91059 17.5938 10.6227 15.6376 9.95914C15.0884 9.78171 14.607 9.45111 14.2547 9.00959C13.7849 8.47787 13.4518 7.84772 13.2822 7.16981C13.1448 6.56614 13.1599 5.93974 13.3261 5.34281C13.4924 4.74589 13.805 4.19578 14.2378 3.73843C14.6486 3.24134 15.1818 2.85013 15.7894 2.60003C16.1732 2.39694 16.6225 2.3392 17.0485 2.43817C17.1452 2.46385 17.2329 2.51387 17.3026 2.58306C17.3724 2.65225 17.4215 2.73808 17.4451 2.83166C17.4686 2.92523 17.4656 3.02314 17.4364 3.11523C17.4072 3.20731 17.3529 3.29023 17.279 3.35537C17.1386 3.47733 16.9861 3.58575 16.8237 3.67908C16.3239 3.98454 15.889 4.37814 15.542 4.83905C15.3145 5.1373 15.1579 5.47979 15.0831 5.84237C15.0083 6.20495 15.0172 6.57886 15.1092 6.93783C15.2367 7.42725 15.5196 7.86655 15.9186 8.19489C17.1553 9.27396 18.763 8.23265 18.482 6.75976C18.0716 6.85689 17.7118 6.95939 17.3464 7.0457Z" fill="#3A3B7B"/>
<path d="M24.9017 10.0886C23.0748 11.1677 20.9949 10.0886 20.5395 7.82261C20.2079 6.20404 20.8374 3.93802 23.041 3.07478C23.5099 2.89507 24.0184 2.83197 24.5194 2.89134C25.1214 2.99711 25.6736 3.28154 26.0982 3.70454C26.5228 4.12753 26.7984 4.66775 26.886 5.24907C27.257 7.17515 26.4138 9.23076 24.9017 10.0886ZM25.5369 6.45759C25.5364 6.0094 25.3712 5.57569 25.0704 5.23288C24.9095 5.02084 24.6771 4.86891 24.4126 4.80297C24.1481 4.73707 23.868 4.76123 23.62 4.87141C22.6307 5.28142 21.9336 6.77051 22.1866 7.86578C22.2059 8.03765 22.2641 8.20342 22.3571 8.35146C22.4501 8.49949 22.5757 8.62625 22.7251 8.72287C22.8744 8.81945 23.044 8.88359 23.2219 8.91075C23.3998 8.93787 23.5817 8.92741 23.7549 8.88007C24.2779 8.70473 24.7307 8.37705 25.0501 7.94274C25.3696 7.50843 25.5398 6.98921 25.5369 6.45759Z" fill="#3A3B7B"/>
<path d="M28.7335 10.5418C28.7059 10.7393 28.5978 10.9182 28.4328 11.0391C28.2678 11.16 28.0595 11.213 27.8538 11.1866C27.648 11.1601 27.4617 11.0563 27.3357 10.8979C27.2097 10.7396 27.1544 10.5397 27.182 10.3422C27.2096 10.1447 27.3178 9.96588 27.4828 9.84496C27.6478 9.72404 27.856 9.67101 28.0618 9.69748C28.2675 9.72395 28.4538 9.82775 28.5799 9.98611C28.7058 10.1445 28.7611 10.3444 28.7335 10.5418ZM28.2444 3.26363C28.3514 3.10691 28.5082 2.98757 28.6916 2.9234C28.8749 2.85923 29.075 2.85367 29.2619 2.90755C29.452 2.95318 29.6198 3.06008 29.7375 3.21036C29.8552 3.36064 29.9155 3.54515 29.9084 3.73302C29.8836 4.03436 29.8366 4.33364 29.7679 4.62862C29.5824 5.62676 29.4025 6.62485 29.2057 7.61221C29.1158 8.00607 28.9977 8.38373 28.8684 8.78296C28.8234 8.90777 28.7483 9.02054 28.6492 9.11208C28.5876 9.18094 28.5089 9.23374 28.4204 9.26563C28.3318 9.29756 28.2364 9.30751 28.1428 9.29459C28.0492 9.28168 27.9605 9.24633 27.8849 9.19181C27.8094 9.13725 27.7493 9.06529 27.7105 8.9826C27.6436 8.83423 27.6073 8.67481 27.6036 8.51321C27.6036 7.84419 27.6036 7.1698 27.6486 6.49537C27.725 5.53291 27.8753 4.57715 28.0983 3.6359C28.1246 3.5098 28.174 3.38921 28.2444 3.27982V3.26363Z" fill="#3A3B7B"/>
<path fill-rule="evenodd" clip-rule="evenodd" d="M3.02798 14.8774C2.9616 15.0196 2.9434 15.1781 2.97584 15.3307C2.99741 15.5318 3.04481 15.7297 3.11693 15.9197C3.20699 16.1523 3.30775 16.3824 3.432 16.666C3.46058 16.7313 3.49044 16.7994 3.52168 16.8711C3.68924 17.2553 3.89948 17.7462 4.17991 18.4568C4.25928 18.6587 4.32976 18.8622 4.40074 19.0671C4.42941 19.1499 4.45819 19.233 4.48765 19.3162C4.59323 19.6122 4.7749 19.8781 5.0157 20.0889C5.11795 20.2047 5.25358 20.2891 5.40567 20.3313C5.56072 20.3743 5.72563 20.3716 5.87903 20.3235C6.03243 20.2753 6.16717 20.184 6.26574 20.0613C6.36238 19.941 6.41985 19.7961 6.43102 19.6447C6.49372 19.3497 6.47232 19.0438 6.36898 18.7595C6.20497 18.2873 6.01815 17.8145 5.8027 17.352L5.80171 17.3499C5.44729 16.6264 5.08703 15.9078 4.70972 15.1889L4.70689 15.1839C4.59644 14.9966 4.45289 14.8292 4.28271 14.6891C4.17222 14.5641 4.01982 14.4798 3.85152 14.4508C3.67964 14.4211 3.50236 14.451 3.35134 14.5352C3.20848 14.6135 3.09523 14.7333 3.02798 14.8774Z" fill="#3A3B7B"/>
<path fill-rule="evenodd" clip-rule="evenodd" d="M8.44126 13.0956C7.88554 12.9575 7.30517 12.9373 6.74058 13.0367C6.30329 13.078 5.8732 13.1748 5.57455 13.3666C5.42266 13.4642 5.29985 13.5895 5.23154 13.7488C5.16285 13.9089 5.15409 14.0921 5.21037 14.2962C5.31315 14.67 5.44661 15.0334 5.5796 15.3957L5.60114 15.4544L5.60166 15.4557C6.00209 16.5082 6.40634 17.5572 6.81427 18.6025C6.86184 18.7673 6.92911 18.9262 7.01472 19.0761L7.01632 19.0788C7.12942 19.2651 7.27448 19.4316 7.44537 19.5715C7.53084 19.6484 7.63653 19.7016 7.75114 19.7254C7.86687 19.7494 7.98723 19.7425 8.0991 19.7052C8.21102 19.6681 8.31011 19.6021 8.38563 19.5146C8.45993 19.4285 8.50858 19.3247 8.52645 19.2143C8.60018 18.9143 8.57656 18.5999 8.45871 18.3132C8.42193 18.2167 8.39308 18.1181 8.36268 18.0143C8.35254 17.9796 8.34226 17.9444 8.33142 17.9086C9.26518 17.5582 10.2587 17.0872 10.6081 15.9914C10.7449 15.6127 10.7563 15.2026 10.6407 14.8174C10.525 14.4318 10.2877 14.09 9.96134 13.8391C9.5172 13.4878 8.9984 13.2341 8.44126 13.0956ZM6.90087 14.4397C6.91926 14.4346 6.93778 14.4299 6.95636 14.4255C7.56426 14.3338 8.18622 14.456 8.70771 14.7696C8.93754 14.923 9.03168 15.0934 9.04785 15.2574C9.06454 15.4263 9.00057 15.6093 8.87205 15.7852C8.62922 16.1174 8.18608 16.3834 7.78579 16.4329C7.49397 15.7879 7.19763 15.1168 6.90087 14.4397Z" fill="#3A3B7B"/>
<path d="M12.1462 11.9149C12.808 11.6216 13.6277 11.5709 14.2692 11.7772C14.4308 11.8223 14.5709 11.92 14.6657 12.0535C14.7599 12.1862 14.8034 12.3461 14.7889 12.5059C14.7879 12.6097 14.7614 12.7118 14.7114 12.8039C14.6606 12.8976 14.587 12.9782 14.4969 13.0389C14.4068 13.0996 14.3027 13.1386 14.1936 13.1526C14.0844 13.1665 13.9734 13.1551 13.8698 13.1191L13.8619 13.1164L13.8545 13.1126C13.8015 13.086 13.7453 13.066 13.687 13.0529L13.6834 13.0521C13.2321 12.9371 12.8064 13.1277 12.651 13.3619C12.5768 13.4736 12.5676 13.5863 12.6294 13.6889C12.6955 13.7987 12.8577 13.9219 13.186 14.0097C13.2763 14.0335 13.3688 14.0565 13.4627 14.0798C13.7222 14.1443 13.992 14.2113 14.2528 14.3042L14.2538 14.3046C15.4572 14.744 15.9053 15.6541 15.7519 16.5102C15.6001 17.3567 14.8635 18.1271 13.7558 18.3088C13.3527 18.3946 12.9333 18.3779 12.5389 18.2604C12.1436 18.1425 11.7872 17.9275 11.5053 17.6365L11.4979 17.6289C11.4089 17.5193 11.349 17.3905 11.3225 17.2538C11.2981 17.1305 11.3109 17.003 11.3595 16.8865C11.4078 16.7706 11.4894 16.6703 11.5948 16.5972C11.7061 16.5144 11.8403 16.4647 11.9807 16.4543C12.1207 16.444 12.2607 16.4732 12.3836 16.5383C12.5064 16.5952 12.6206 16.6678 12.7231 16.7542L12.725 16.7557C12.9063 16.9149 13.1257 16.9564 13.336 16.9179C13.5494 16.879 13.7501 16.7578 13.8792 16.597C14.0074 16.4372 14.0589 16.2473 13.9978 16.0631C13.9363 15.8775 13.7515 15.6695 13.3453 15.4956C13.2392 15.4524 13.1291 15.4175 13.0146 15.3835C12.9837 15.3743 12.9523 15.3652 12.9205 15.356C12.8359 15.3313 12.7487 15.3059 12.6633 15.2779C12.6045 15.2586 12.5461 15.2404 12.4883 15.2223C12.3304 15.1729 12.1763 15.1248 12.0281 15.0603C11.7055 14.9548 11.4268 14.7524 11.2335 14.483C11.0393 14.2124 10.9417 13.8889 10.955 13.5607C10.956 12.7609 11.4808 12.2099 12.1462 11.9149Z" fill="#3A3B7B"/>
<path d="M20.5363 11.8297C20.408 11.7696 20.2661 11.741 20.1234 11.7466C19.9807 11.7523 19.8417 11.7919 19.719 11.862C19.5971 11.9316 19.4949 12.0291 19.4218 12.1457C19.3547 12.244 19.3083 12.3538 19.2851 12.4692C19.262 12.5845 19.2625 12.7029 19.2867 12.8179C19.3106 12.9657 19.3371 13.1095 19.3633 13.2512C19.4066 13.4858 19.4487 13.7151 19.4766 13.9489L19.4776 13.9548C19.5409 14.3215 19.5741 14.6923 19.577 15.0639L19.5773 15.0691C19.5989 15.4705 19.4565 15.8639 19.1805 16.1661L19.1761 16.1715C19.0863 16.282 18.9662 16.3663 18.8292 16.415C18.6923 16.4637 18.544 16.4749 18.4009 16.4474C18.2577 16.4198 18.1254 16.3545 18.0186 16.2589C17.9119 16.1632 17.8349 16.0406 17.7965 15.9054C17.7145 15.6205 17.667 15.3274 17.6549 15.0321L17.795 12.8912C17.7971 12.8632 17.7995 12.8345 17.8019 12.8056C17.8072 12.7406 17.8127 12.6743 17.8149 12.6126C17.8182 12.5217 17.8154 12.4282 17.7933 12.3397C17.7707 12.2493 17.7278 12.1633 17.6516 12.09C17.5762 12.0175 17.4744 11.964 17.3462 11.9276C17.1145 11.8632 16.9186 11.8652 16.7553 11.9317C16.592 11.9982 16.4801 12.1217 16.4009 12.2643C16.3223 12.4057 16.2718 12.5732 16.2336 12.7409C16.2053 12.8653 16.1825 12.996 16.1609 13.1203C16.1534 13.1632 16.1461 13.2052 16.1387 13.2461L16.1385 13.2473C16.0227 13.9292 15.9882 14.6216 16.0357 15.311C16.0446 15.6836 16.1256 16.0514 16.2745 16.3955C16.4426 16.8396 16.747 17.2243 17.1476 17.499C17.549 17.7742 18.028 17.9258 18.5212 17.9339C19.0144 17.9419 19.4985 17.8059 19.9094 17.5439C20.3197 17.2823 20.6376 16.9073 20.8212 16.4687C21.078 15.9099 21.1985 15.3022 21.1737 14.6919C21.1586 14.2464 21.1333 13.7974 21.1082 13.3507C21.0958 13.1315 21.0835 12.9129 21.0725 12.6956C21.0669 12.4777 20.9921 12.2666 20.8579 12.0907C20.7749 11.9795 20.6644 11.8898 20.5363 11.8297Z" fill="#3A3B7B"/>
<path d="M25.0782 15.1867C25.0651 15.2026 25.0514 15.219 25.0371 15.2361C24.9327 14.6582 24.836 14.0805 24.7391 13.5019C24.7044 13.2943 24.6694 13.0858 24.6343 12.8779L24.6303 12.8548L24.6175 12.8347C24.5933 12.797 24.5909 12.76 24.5909 12.6812V12.6721L24.5895 12.663C24.5633 12.5002 24.4865 12.3486 24.3693 12.2282C24.2524 12.1081 24.1005 12.0246 23.9335 11.9883C23.7667 11.9488 23.5915 11.9575 23.4299 12.0133C23.2686 12.069 23.1281 12.169 23.0258 12.3009C22.9408 12.4021 22.871 12.5144 22.8188 12.6343C22.7002 12.8928 22.5806 13.1518 22.4607 13.4116L22.4586 13.416C22.1592 14.0645 21.8578 14.7173 21.5651 15.3753L21.5642 15.3774C21.3846 15.8041 21.2363 16.2536 21.0885 16.7017C21.0589 16.7912 21.0294 16.8806 20.9997 16.9698C20.9463 17.1112 20.923 17.2614 20.931 17.4116C20.9213 17.546 20.9548 17.6801 21.0271 17.7958C21.1009 17.9138 21.2113 18.0066 21.3429 18.0612C21.4823 18.1199 21.6382 18.1324 21.7859 18.0966C21.9333 18.061 22.0642 17.9793 22.1579 17.8646C22.2777 17.7232 22.3807 17.569 22.4647 17.4056C22.7126 16.9189 22.9496 16.4262 23.1854 15.9357C23.2767 15.746 23.3654 15.5761 23.4663 15.391C23.4732 15.4138 23.4803 15.4361 23.4876 15.4584C23.5933 15.9052 23.7718 16.3331 24.0164 16.7266C24.0627 16.8099 24.1272 16.8828 24.2055 16.9401C24.2847 16.9981 24.3761 17.0389 24.4733 17.0595C24.5706 17.0802 24.6714 17.0803 24.7687 17.0598C24.8658 17.0394 24.9575 16.9986 25.0368 16.9408L25.1936 16.8282L26.411 15.844L26.339 16.2843C26.2402 16.8896 26.1421 17.4898 26.0379 18.0901C25.9698 18.3562 25.9699 18.6342 26.0382 18.9001C26.0678 19.0499 26.1433 19.1877 26.2549 19.296C26.3675 19.4053 26.5116 19.4795 26.6687 19.5091C26.8258 19.5387 26.9885 19.5223 27.1358 19.462C27.2809 19.4027 27.4043 19.3034 27.4906 19.1768C27.6913 18.9378 27.8162 18.6484 27.8505 18.3431C27.9022 17.912 27.9606 17.475 28.019 17.0382C28.0863 16.5346 28.1535 16.0312 28.2103 15.5375L28.2105 15.536C28.2652 14.9955 28.2917 14.4528 28.2898 13.9098C28.3018 13.7382 28.2573 13.5673 28.1624 13.4212C28.0673 13.2746 27.9263 13.1606 27.7597 13.0954C27.5864 13.0198 27.3924 12.9996 27.2062 13.0378C27.0213 13.0757 26.8539 13.1693 26.7283 13.3048C26.5038 13.5042 26.2931 13.7174 26.0977 13.9433L26.0964 13.9449C25.8831 14.2 25.6712 14.4601 25.4607 14.7185C25.3327 14.8757 25.2051 15.0324 25.0782 15.1867Z" fill="#3A3B7B"/>
</g>
<defs>
<clipPath id="clip0_211_2057">
<rect width="32.7153" height="20.186" fill="white" transform="scale(1.0087)"/>
</clipPath>
</defs>
</svg>
