<svg width="28" height="20" viewBox="0 0 28 20" fill="none" xmlns="http://www.w3.org/2000/svg">
<g clip-path="url(#clip0_211_2050)">
<path fill-rule="evenodd" clip-rule="evenodd" d="M6.99005 2.88023L0 9.8C1.39814 11.1841 2.99529 12.3506 4.73665 13.2632C5.21797 14.5271 5.97242 15.7124 7 16.7297C10.866 20.5568 17.134 20.5568 21 16.7297C22.0276 15.7124 22.7821 14.5271 23.2634 13.2631C25.0047 12.3506 26.6019 11.1841 28 9.8L21.0156 2.88586C21.0104 2.88069 21.0053 2.87551 21 2.87035C17.134 -0.956783 10.866 -0.956783 7 2.87035C6.99669 2.87365 6.99337 2.87694 6.99005 2.88023ZM20.3312 14.5116C18.2942 15.1922 16.1558 15.5407 14 15.5407C11.8442 15.5407 9.70592 15.1922 7.66892 14.5116C7.88963 14.8015 8.1333 15.0797 8.4 15.3437C11.4928 18.4055 16.5072 18.4055 19.6 15.3437C19.8667 15.0797 20.1104 14.8015 20.3312 14.5116ZM8.54357 4.11768C9.06878 4.46118 9.62724 4.75511 10.2116 4.99475C11.4127 5.48724 12.7 5.74073 14 5.74073C15.3 5.74073 16.5873 5.48724 17.7884 4.99475C18.3728 4.75511 18.9312 4.46117 19.4565 4.11767C16.4023 1.24077 11.5977 1.24078 8.54357 4.11768Z" fill="#3B4158"/>
</g>
<defs>
<clipPath id="clip0_211_2050">
<rect width="27.8428" height="19.4899" fill="white" transform="scale(1.00565)"/>
</clipPath>
</defs>
</svg>
