<svg width="96" height="18" viewBox="0 0 96 18" fill="none" xmlns="http://www.w3.org/2000/svg">
<path d="M14.6662 0V17.5343H11.4641L3.83563 6.49832H3.70721V17.5343H0V0H3.25344L10.822 11.0274H10.9761V0H14.6662Z" fill="white"/>
<path d="M23.6538 17.7912C22.301 17.7912 21.1367 17.5172 20.1606 16.9693C19.1903 16.4156 18.4426 15.6336 17.9175 14.6234C17.3923 13.6074 17.1298 12.4059 17.1298 11.0189C17.1298 9.66614 17.3923 8.47892 17.9175 7.45723C18.4426 6.43553 19.1817 5.63929 20.1349 5.06851C21.0938 4.49774 22.2183 4.21235 23.5082 4.21235C24.3758 4.21235 25.1835 4.35219 25.9312 4.63187C26.6846 4.90584 27.341 5.31966 27.9004 5.87331C28.4655 6.42697 28.905 7.12332 29.2189 7.96236C29.5328 8.7957 29.6898 9.77173 29.6898 10.8905V11.8922H18.5853V9.63189H26.2565C26.2565 9.10678 26.1424 8.64159 25.9141 8.23634C25.6858 7.83108 25.369 7.5143 24.9637 7.28599C24.5642 7.05197 24.099 6.93496 23.5682 6.93496C23.0145 6.93496 22.5236 7.06339 22.0956 7.32024C21.6732 7.57138 21.3421 7.91099 21.1024 8.33908C20.8627 8.76145 20.74 9.23235 20.7343 9.75176V11.9007C20.7343 12.5514 20.8541 13.1136 21.0938 13.5874C21.3393 14.0611 21.6846 14.4264 22.1298 14.6833C22.575 14.9401 23.103 15.0686 23.7137 15.0686C24.119 15.0686 24.49 15.0115 24.8267 14.8973C25.1635 14.7832 25.4517 14.6119 25.6915 14.3836C25.9312 14.1553 26.1138 13.8756 26.2394 13.5446L29.6127 13.7672C29.4415 14.5777 29.0905 15.2855 28.5596 15.8905C28.0345 16.4898 27.3553 16.9578 26.5219 17.2946C25.6943 17.6256 24.7383 17.7912 23.6538 17.7912Z" fill="white"/>
<path d="M34.8824 4.38358L37.2968 8.9812L39.7711 4.38358H43.5126L39.7027 10.959L43.6153 17.5343H39.891L37.2968 12.9881L34.7454 17.5343H30.9783L34.8824 10.959L31.1153 4.38358H34.8824Z" fill="white"/>
<path d="M51.1496 17.7912C49.8026 17.7912 48.6439 17.5058 47.6736 16.935C46.709 16.3585 45.967 15.5594 45.4475 14.5377C44.9338 13.516 44.677 12.3402 44.677 11.0103C44.677 9.66329 44.9367 8.48177 45.4561 7.46579C45.9812 6.44409 46.7261 5.64786 47.6907 5.07708C48.6553 4.50059 49.8026 4.21235 51.1325 4.21235C52.2798 4.21235 53.2843 4.42068 54.1462 4.83735C55.0081 5.25402 55.6902 5.83907 56.1925 6.59249C56.6947 7.34592 56.9716 8.23063 57.0229 9.24662H53.5811C53.4841 8.59022 53.2273 8.06225 52.8106 7.66271C52.3996 7.25745 51.8602 7.05483 51.1924 7.05483C50.6274 7.05483 50.1336 7.20894 49.7113 7.51716C49.2946 7.81967 48.9693 8.26202 48.7352 8.84422C48.5012 9.42641 48.3842 10.1313 48.3842 10.959C48.3842 11.798 48.4984 12.5115 48.7267 13.0994C48.9607 13.6873 49.2889 14.1353 49.7113 14.4436C50.1336 14.7518 50.6274 14.9059 51.1924 14.9059C51.6091 14.9059 51.983 14.8203 52.314 14.649C52.6508 14.4778 52.9276 14.2295 53.1445 13.9042C53.3671 13.5731 53.5127 13.1764 53.5811 12.7141H57.0229C56.9659 13.7187 56.6919 14.6034 56.201 15.3682C55.7159 16.1274 55.0452 16.721 54.189 17.149C53.3329 17.5771 52.3197 17.7912 51.1496 17.7912Z" fill="white"/>
<path d="M65.3513 17.7912C63.9986 17.7912 62.8342 17.5172 61.8581 16.9693C60.8878 16.4156 60.1401 15.6336 59.615 14.6234C59.0899 13.6074 58.8273 12.4059 58.8273 11.0189C58.8273 9.66614 59.0899 8.47892 59.615 7.45723C60.1401 6.43553 60.8793 5.63929 61.8325 5.06851C62.7914 4.49774 63.9158 4.21235 65.2058 4.21235C66.0734 4.21235 66.881 4.35219 67.6287 4.63187C68.3821 4.90584 69.0385 5.31966 69.5979 5.87331C70.163 6.42697 70.6025 7.12332 70.9164 7.96236C71.2303 8.7957 71.3873 9.77173 71.3873 10.8905V11.8922H60.2828V9.63189H67.9541C67.9541 9.10678 67.8399 8.64159 67.6116 8.23634C67.3833 7.83108 67.0665 7.5143 66.6613 7.28599C66.2617 7.05197 65.7965 6.93496 65.2657 6.93496C64.712 6.93496 64.2212 7.06339 63.7931 7.32024C63.3707 7.57138 63.0397 7.91099 62.7999 8.33908C62.5602 8.76145 62.4375 9.23235 62.4318 9.75176V11.9007C62.4318 12.5514 62.5516 13.1136 62.7914 13.5874C63.0368 14.0611 63.3821 14.4264 63.8273 14.6833C64.2725 14.9401 64.8005 15.0686 65.4112 15.0686C65.8165 15.0686 66.1875 15.0115 66.5243 14.8973C66.861 14.7832 67.1493 14.6119 67.389 14.3836C67.6287 14.1553 67.8114 13.8756 67.9369 13.5446L71.3102 13.7672C71.139 14.5777 70.788 15.2855 70.2572 15.8905C69.732 16.4898 69.0528 16.9578 68.2195 17.2946C67.3918 17.6256 66.4358 17.7912 65.3513 17.7912Z" fill="white"/>
<path d="M77.4147 9.93155V17.5343H73.7674V4.38358H77.2435V6.7038H77.3976C77.6887 5.93895 78.1767 5.33393 78.8616 4.88872C79.5466 4.4378 80.3771 4.21235 81.3531 4.21235C82.2663 4.21235 83.0626 4.41212 83.7418 4.81167C84.421 5.21121 84.949 5.78199 85.3257 6.524C85.7024 7.26031 85.8908 8.13931 85.8908 9.161V17.5343H82.2435V9.81169C82.2492 9.00689 82.0437 8.37903 81.6271 7.92812C81.2104 7.4715 80.6368 7.24318 79.9062 7.24318C79.4153 7.24318 78.9815 7.34878 78.6048 7.55997C78.2338 7.77115 77.9427 8.07937 77.7315 8.48463C77.526 8.88417 77.4204 9.36648 77.4147 9.93155Z" fill="white"/>
<path d="M95.7603 4.38358V7.12332H87.8407V4.38358H95.7603ZM89.6387 1.23288H93.2859V13.4932C93.2859 13.83 93.3373 14.0925 93.4401 14.2809C93.5428 14.4635 93.6855 14.592 93.8681 14.6662C94.0565 14.7404 94.2734 14.7775 94.5188 14.7775C94.6901 14.7775 94.8613 14.7632 95.0325 14.7347C95.2038 14.7004 95.335 14.6747 95.4264 14.6576L96 17.3717C95.8173 17.4287 95.5605 17.4944 95.2294 17.5686C94.8984 17.6485 94.496 17.697 94.0222 17.7141C93.1433 17.7484 92.3727 17.6314 91.7106 17.3631C91.0542 17.0948 90.5433 16.6782 90.178 16.1131C89.8127 15.548 89.633 14.8345 89.6387 13.9727V1.23288Z" fill="white"/>
</svg>
