<svg width="23" height="23" viewBox="0 0 23 23" fill="none" xmlns="http://www.w3.org/2000/svg">
<path opacity="0.1" fill-rule="evenodd" clip-rule="evenodd" d="M0 11.5C0 5.14872 5.14872 0 11.5 0C17.8513 0 23 5.14872 23 11.5C23 17.8513 17.8513 23 11.5 23C5.14872 23 0 17.8513 0 11.5Z" fill="white"/>
<path fill-rule="evenodd" clip-rule="evenodd" d="M16.2925 7.54651C16.8203 7.69135 17.236 8.1181 17.377 8.66004C17.6334 9.64225 17.6334 11.6916 17.6334 11.6916C17.6334 11.6916 17.6334 13.7409 17.377 14.7232C17.236 15.2651 16.8203 15.6919 16.2925 15.8368C15.3359 16.1 11.5 16.1 11.5 16.1C11.5 16.1 7.66413 16.1 6.70753 15.8368C6.17972 15.6919 5.76405 15.2651 5.62298 14.7232C5.3667 13.7409 5.3667 11.6916 5.3667 11.6916C5.3667 11.6916 5.3667 9.64225 5.62298 8.66004C5.76405 8.1181 6.17972 7.69135 6.70753 7.54651C7.66413 7.28329 11.5 7.28329 11.5 7.28329C11.5 7.28329 15.3359 7.28329 16.2925 7.54651ZM10.35 9.96658V13.7999L13.4167 11.8833L10.35 9.96658Z" fill="white"/>
</svg>
