<svg width="25" height="29" viewBox="0 0 25 29" fill="none" xmlns="http://www.w3.org/2000/svg">
<path d="M13.6231 1.33645C13.6231 2.76582 14.9385 4.78837 16.9402 6.5322C16.7038 7.85493 16.7403 9.212 17.0474 10.5201C17.1703 10.9267 17.3587 11.3105 17.6051 11.6565C17.6963 11.8013 17.8188 11.9239 17.9635 12.0154C18.1082 12.1069 18.2715 12.1649 18.4415 12.1853C18.9061 12.1853 19.092 11.9423 19.235 11.5779C19.4461 11.116 19.6848 10.6674 19.9499 10.2343C20.0679 10.0493 20.2044 9.87693 20.3574 9.71968C21.0722 9.06932 23.1383 8.29031 24.1034 10.4915C25.0685 12.6928 23.2598 15.8088 21.587 16.2733C18.7274 17.0809 18.0769 15.1155 18.0769 15.1155L18.1269 24.6494C17.3191 27.065 12.8439 29.4163 9.24085 28.9375C5.63782 28.4587 6.78163 26.286 8.24715 24.8138L8.06129 21.5048C6.77871 21.6319 5.48479 21.5838 4.21519 21.3619C2.72107 21.076 1.49147 19.6752 0.869517 17.3954C-0.121242 13.0517 -0.26687 8.55809 0.440579 4.15945C0.983894 1.47224 1.64873 0.31446 1.97043 0C1.97043 0.58604 3.09281 2.37989 6.00241 2.78012C9.07643 3.22322 11.407 2.25125 13.6231 1.33645Z" fill="#E8F5E9"/>
</svg>
