<svg width="128" height="82" viewBox="0 0 128 82" fill="none" xmlns="http://www.w3.org/2000/svg">
<path d="M128 2.66227V8.96941L2.4112 81.498L0 80.0758V73.8754C0.0268124 73.2092 0.222618 72.5608 0.569014 71.991C0.884891 71.43 1.33753 70.9579 1.88486 70.6187L123.711 0.25176C123.908 0.110063 124.14 0.0246125 124.382 0.00457055C124.623 -0.0154714 124.866 0.0306507 125.084 0.13799C125.432 0.351309 127.082 1.28991 127.417 1.46057C127.469 1.48541 127.518 1.51908 127.559 1.56012C127.616 1.60218 127.666 1.65251 127.708 1.70944C127.757 1.76796 127.797 1.83249 127.829 1.90143C127.873 1.97134 127.904 2.04834 127.922 2.12897C127.949 2.21225 127.968 2.29798 127.979 2.38495C127.994 2.47658 128.001 2.56938 128 2.66227Z" fill="#4CAF4F"/>
</svg>
