<svg width="14" height="112" viewBox="0 0 14 112" fill="none" xmlns="http://www.w3.org/2000/svg">
<path d="M11.5043 112C11.4964 111.902 11.4964 111.803 11.5043 111.705V110.842C11.5043 110.065 11.5619 108.949 11.6051 107.532C11.7058 104.654 11.8497 100.474 12.0295 95.3515C12.4181 85.0486 12.9649 70.8463 13.562 55.169C13.562 55.0179 13.562 54.874 13.562 54.7445V54.7949C9.7848 39.686 6.36731 25.9729 3.88514 16.0514L1.00725 4.31682C0.676298 2.94264 0.424485 1.87062 0.244617 1.12237C0.158281 0.769832 0.10072 0.49643 0.0503572 0.287784C0.0223301 0.194164 0.00543176 0.0975739 0 0C0.0373703 0.0906686 0.0662688 0.184589 0.086333 0.280582C0.143891 0.482034 0.215832 0.755443 0.316558 1.10079C0.510815 1.82026 0.791411 2.91384 1.15115 4.28084C1.87062 7.05799 2.88507 11.0583 4.15134 15.9866C6.6551 25.9009 10.1086 39.5781 13.9361 54.7085V54.7589C13.9361 54.8884 13.9361 55.0395 13.9361 55.1834C13.2958 70.8607 12.713 85.0558 12.2886 95.3586C12.0655 100.488 11.8785 104.64 11.7489 107.532C11.677 108.971 11.6194 110.065 11.5835 110.842C11.5835 111.209 11.5403 111.496 11.5331 111.705C11.5342 111.804 11.5245 111.903 11.5043 112Z" fill="#455A64"/>
</svg>
