<svg width="3" height="6" viewBox="0 0 3 6" fill="none" xmlns="http://www.w3.org/2000/svg">
<path d="M1.44986 0.189073C1.62154 0.0832753 1.81573 0.0193866 2.01671 0.00257249C2.17088 -0.00978966 2.32536 0.0225823 2.46158 0.0958172C2.5913 0.165305 2.6965 0.272993 2.76294 0.404272C2.83223 0.539826 2.86908 0.68962 2.87057 0.841841C2.88064 0.884291 2.88064 0.928503 2.87057 0.970954C2.85415 1.00714 2.82959 1.03906 2.79882 1.06421L2.16021 1.43004C2.12526 1.44154 2.08754 1.44154 2.05259 1.43004C2.02081 1.42749 1.99067 1.41493 1.96648 1.39417L1.92343 1.34397C1.8989 1.31923 1.86961 1.2997 1.83733 1.28658C1.78774 1.27522 1.73623 1.27522 1.68665 1.28658C1.61193 1.30007 1.54097 1.32942 1.47856 1.37265C1.41448 1.40661 1.35433 1.4475 1.29918 1.4946C1.24391 1.53683 1.19339 1.58494 1.1485 1.63807C1.10405 1.69227 1.06779 1.75269 1.04087 1.8174C1.01225 1.88301 0.997595 1.95385 0.997818 2.02542C0.994335 2.08244 1.01224 2.13871 1.04804 2.18323C1.06762 2.20261 1.09139 2.21721 1.11752 2.22592C1.14366 2.23463 1.17144 2.23721 1.19873 2.23345C1.2981 2.23029 1.3968 2.21584 1.49291 2.1904L1.93778 2.07564C2.08579 2.02739 2.24166 2.00791 2.397 2.01825C2.52005 2.01916 2.63908 2.0622 2.73424 2.1402C2.82751 2.23062 2.89447 2.34466 2.92797 2.47016C2.97859 2.65715 3.00275 2.85032 2.99973 3.04402C2.99575 3.28737 2.95709 3.52891 2.88492 3.76134C2.73232 4.25021 2.46118 4.69377 2.09564 5.05253C1.91668 5.22937 1.71667 5.38356 1.50009 5.51162C1.31598 5.62374 1.11086 5.69698 0.897364 5.72682C0.736808 5.7448 0.574519 5.71485 0.430969 5.64074C0.299183 5.56508 0.192048 5.45299 0.122431 5.31794C0.0449719 5.16713 0.00555729 4.99968 0.00762408 4.83016C-0.00254136 4.7853 -0.00254136 4.73873 0.00762408 4.69387C0.0240619 4.65969 0.0487183 4.63012 0.0793814 4.60779L0.717982 4.24195C0.761034 4.24195 0.79691 4.19891 0.818436 4.24195C0.844278 4.23494 0.871522 4.23494 0.897364 4.24195L0.954768 4.30652C0.986165 4.33844 1.0225 4.36508 1.06239 4.38542C1.11628 4.40117 1.17354 4.40117 1.22743 4.38542C1.31387 4.37408 1.39697 4.34475 1.47138 4.29934C1.63033 4.2082 1.77533 4.09465 1.90191 3.96219C2.01114 3.85404 2.07306 3.70702 2.07411 3.55333C2.07741 3.52477 2.07318 3.49584 2.06186 3.46942C2.05053 3.443 2.03249 3.41999 2.00953 3.40268C1.94848 3.38589 1.88403 3.38589 1.82298 3.40268C1.71361 3.41438 1.60554 3.43599 1.50009 3.46724L1.03369 3.58201C0.91408 3.6275 0.784481 3.64019 0.658318 3.61875C0.532154 3.59731 0.414017 3.54252 0.316162 3.46007C0.131343 3.19966 0.0472219 2.88109 0.0793814 2.56341C0.0826926 2.33754 0.116482 2.11315 0.179835 1.89631C0.24013 1.66264 0.331851 1.43821 0.452494 1.22919C0.57023 1.00894 0.714839 0.804136 0.883011 0.619472C1.05069 0.449975 1.24153 0.305067 1.44986 0.189073Z" fill="#F5F7FA"/>
</svg>
