<svg width="8" height="8" viewBox="0 0 8 8" fill="none" xmlns="http://www.w3.org/2000/svg">
<path d="M4.30514 0C5.46449 0.280528 5.82632 1.01138 5.90754 2.64287C5.95185 3.60996 6.358 5.37433 7.45828 6.01659C6.9489 5.99823 6.45708 5.82576 6.04785 5.52198C5.51617 5.04212 5.37588 4.99784 5.11743 5.30789C4.92644 5.51602 4.68844 5.67547 4.42329 5.77297C4.61334 5.96316 4.73684 6.20964 4.77543 6.47569C4.81402 6.74173 4.76561 7.01312 4.63742 7.24944C4.18697 8.12055 1.91995 8.29034 0 7.45614C0 7.45614 3.07931 8.19438 3.69222 7.19039C4.30512 6.18639 2.65101 5.0938 1.47689 4.85018C1.47689 4.85018 4.43067 5.34481 4.81466 4.36296C5.19865 3.38111 3.94329 2.73884 2.20057 2.4214C2.20057 2.4214 4.63743 2.69455 4.99188 1.84558C5.12459 1.50737 5.12791 1.13213 5.00121 0.791626C4.87451 0.451125 4.62668 0.169274 4.30514 0Z" fill="#C8E6C9"/>
</svg>
