<svg width="60" height="124" viewBox="0 0 60 124" fill="none" xmlns="http://www.w3.org/2000/svg">
<path d="M58.4301 0.711577C58.4969 0.708552 58.5632 0.723284 58.6223 0.75427H58.6579C58.6579 0.75427 58.8785 0.939279 58.8785 1.46585V88.2284C58.8413 88.8264 58.6657 89.4076 58.3655 89.9262C58.0654 90.4448 57.6489 90.8867 57.1489 91.217L1.70827 123.238C1.60743 123.301 1.49241 123.338 1.37373 123.345H1.25273H1.21714L1.16021 123.302H1.11749L1.08191 123.266C0.993086 123.175 0.920825 123.069 0.868374 122.953C0.764637 122.713 0.71134 122.454 0.711781 122.192V35.8421C0.755392 35.2457 0.933689 34.6669 1.23327 34.1492C1.53285 33.6316 1.94591 33.1886 2.4414 32.8535L57.8892 0.896585C58.0595 0.786171 58.2559 0.722378 58.4586 0.711577H58.4301ZM58.4586 0C58.1312 0.00997775 57.8121 0.105669 57.5333 0.277514L2.08551 32.2344C1.47981 32.6307 0.975573 33.1636 0.61336 33.7902C0.251146 34.4168 0.0410647 35.1196 0 35.8421V122.085C4.31581e-05 122.448 0.0751693 122.806 0.22065 123.138C0.310873 123.345 0.441561 123.531 0.605008 123.686C0.639567 123.723 0.67772 123.757 0.718895 123.786L0.839897 123.871L0.953784 123.928C1.01018 123.957 1.06996 123.978 1.13173 123.992C1.21921 124.003 1.30761 124.003 1.39509 123.992C1.62907 123.983 1.85686 123.914 2.05705 123.793L57.5048 91.7721C58.1125 91.3778 58.6182 90.8455 58.9807 90.2184C59.3432 89.5914 59.5521 88.8875 59.5903 88.1644V1.49431C59.6133 1.25925 59.5793 1.02212 59.4914 0.802918C59.4034 0.583717 59.264 0.388873 59.085 0.234819C58.8961 0.0943554 58.6654 0.0216527 58.4301 0.028461L58.4586 0Z" fill="#455A64"/>
</svg>
