<svg width="3" height="6" viewBox="0 0 3 6" fill="none" xmlns="http://www.w3.org/2000/svg">
<path d="M0.890679 2.61655C0.890679 2.68779 0.890679 2.77327 0.890679 2.88724V3.59959C0.890679 3.71356 0.890679 3.79904 0.890679 3.86315C0.896908 3.96386 0.911206 4.0639 0.933432 4.16233C0.948385 4.24215 0.98541 4.31618 1.04031 4.37603C1.0894 4.42641 1.15539 4.45686 1.22557 4.46152C1.32237 4.45481 1.41572 4.42288 1.49634 4.36892C1.60074 4.3177 1.69304 4.24485 1.76711 4.15521C1.83502 4.08276 1.89257 4.00125 1.93812 3.91302C1.98266 3.83402 2.0185 3.75042 2.045 3.66369C2.045 3.57821 2.08775 3.50698 2.102 3.44287C2.10889 3.37432 2.12569 3.30714 2.15188 3.24342C2.17844 3.19548 2.21794 3.15599 2.26589 3.12944L2.89293 2.76615C2.89293 2.76615 2.94993 2.76615 2.96418 2.76615C2.97632 2.77819 2.98577 2.79268 2.99191 2.80864C2.99806 2.8246 3.00074 2.84168 2.99981 2.85876C2.99332 3.12407 2.9526 3.38743 2.87867 3.64232C2.80014 3.9074 2.69261 4.16302 2.55803 4.40453C2.42501 4.64128 2.26738 4.86333 2.08775 5.06701C1.91828 5.25955 1.71852 5.42317 1.49634 5.5514C1.3109 5.67037 1.09666 5.73683 0.876428 5.74373C0.707497 5.74573 0.54335 5.68767 0.413276 5.57989C0.272235 5.45491 0.170711 5.29153 0.121134 5.10975C0.0465667 4.87939 0.00576432 4.63945 0 4.3974C0 4.19795 0 3.98425 0 3.7563C0 3.52835 0 3.29328 0 3.07958C0.010849 2.79638 0.0490284 2.51488 0.114007 2.23901C0.183737 1.95819 0.284096 1.68587 0.413276 1.42694C0.536365 1.17057 0.692033 0.931142 0.876428 0.714602C1.05355 0.508863 1.26291 0.333245 1.49634 0.194596C1.67554 0.084746 1.8782 0.0188372 2.08775 0.00226113C2.25261 -0.0102854 2.41722 0.0296106 2.55803 0.116238C2.70233 0.211137 2.8142 0.347832 2.87867 0.508028C2.95967 0.712025 3.00079 0.929652 2.99981 1.14913C2.99908 1.19647 2.98685 1.24292 2.96418 1.28448C2.95061 1.32198 2.92571 1.35435 2.89293 1.37708L2.26589 1.74038C2.20888 1.74038 2.17326 1.77599 2.15188 1.74038C2.12362 1.70044 2.10642 1.65375 2.102 1.60503C2.102 1.55516 2.102 1.49818 2.045 1.44119C2.01959 1.39088 1.98304 1.34702 1.93812 1.31297C1.88653 1.28228 1.82707 1.26742 1.76711 1.27023C1.67013 1.28118 1.57724 1.31539 1.49634 1.36995C1.39093 1.42587 1.29863 1.50358 1.22557 1.59791C1.14923 1.68521 1.08675 1.78371 1.04031 1.88997C0.991 1.99673 0.955102 2.10918 0.933432 2.22476C0.910374 2.35425 0.896089 2.48514 0.890679 2.61655Z" fill="#F5F7FA"/>
</svg>
