<svg width="60" height="124" viewBox="0 0 60 124" fill="none" xmlns="http://www.w3.org/2000/svg">
<path d="M59.6083 1.49564V88.1835C59.5701 88.9063 59.3613 89.6098 58.999 90.2364C58.6367 90.8631 58.1313 91.3952 57.5239 91.7892L2.10575 123.793C1.89202 123.925 1.64548 123.994 1.39435 123.992C1.30692 124.003 1.21857 124.003 1.13114 123.992C1.0694 123.978 1.00965 123.957 0.953286 123.928L0.839459 123.871L0.718522 123.786C0.677369 123.757 0.639236 123.723 0.604695 123.686C0.441336 123.531 0.310717 123.345 0.220544 123.139C0.07514 122.807 4.31351e-05 122.449 0 122.086V35.8251C0.0410427 35.103 0.251023 34.4005 0.613043 33.7743C0.975063 33.148 1.47903 32.6154 2.08441 32.2193L57.5026 0.27949C57.7066 0.134725 57.9433 0.042723 58.1916 0.0116981C58.4399 -0.0193268 58.692 0.0115914 58.9254 0.101691C58.9877 0.131935 59.0472 0.167633 59.1032 0.208369C59.2864 0.365182 59.4283 0.564577 59.5163 0.78903C59.6044 1.01348 59.636 1.25613 59.6083 1.49564Z" fill="#455A64"/>
</svg>
