<svg width="18" height="20" viewBox="0 0 18 20" fill="none" xmlns="http://www.w3.org/2000/svg">
<path opacity="0.4" d="M15.4235 0.0626588L0.377223 8.76476C0.268486 8.83612 0.177815 8.93174 0.112353 9.04411C0.0468912 9.15647 0.00842893 9.28251 0 9.41226V17.8084C0.00732156 17.9384 0.0453167 18.0649 0.110879 18.1774C0.176441 18.29 0.267707 18.3854 0.377223 18.4559L1.86477 19.2955C1.9756 19.3496 2.09731 19.3777 2.22064 19.3777C2.34397 19.3777 2.46567 19.3496 2.57651 19.2955L17.6299 10.629C17.7365 10.5561 17.8253 10.4599 17.8894 10.3478C17.9535 10.2356 17.9913 10.1104 18 9.9815V1.58535C17.9927 1.45532 17.9547 1.32887 17.8891 1.21633C17.8235 1.1038 17.7323 1.00837 17.6228 0.937847L16.1423 0.0982379C16.0323 0.0403646 15.911 0.00718907 15.7868 0.0010442C15.6627 -0.00510066 15.5387 0.0159311 15.4235 0.0626588Z" fill="#103E13"/>
</svg>
