<svg width="3" height="6" viewBox="0 0 3 6" fill="none" xmlns="http://www.w3.org/2000/svg">
<path d="M2.50919 3.30021C2.50919 3.30021 2.57816 3.30021 2.60115 3.30021C2.6174 3.31598 2.62995 3.33515 2.6379 3.35634C2.64585 3.37754 2.649 3.40023 2.64713 3.42279V4.30381C2.64751 4.36556 2.63166 4.42632 2.60115 4.48001C2.58543 4.53018 2.55297 4.57345 2.50919 4.60259L0.11057 5.98159C0.0966889 5.99346 0.0790219 5.99998 0.0607561 5.99998C0.0424903 5.99998 0.0248292 5.99346 0.0109484 5.98159C-0.00364947 5.9394 -0.00364947 5.89354 0.0109484 5.85135V0.7031C0.000378195 0.647416 0.000378195 0.59024 0.0109484 0.534555C0.0314935 0.484861 0.0661192 0.442252 0.11057 0.411975L0.784941 0.0212639C0.791379 0.0145433 0.799112 0.00919474 0.807673 0.00554101C0.816233 0.00188728 0.825446 0 0.834755 0C0.844063 0 0.853276 0.00188728 0.861836 0.00554101C0.870397 0.00919474 0.87813 0.0145433 0.884568 0.0212639C0.900813 0.0370317 0.913358 0.0562044 0.921309 0.0773988C0.929259 0.0985932 0.932415 0.121286 0.930546 0.143844V4.23486L2.50919 3.30021Z" fill="#F5F7FA"/>
</svg>
