<svg width="104" height="109" viewBox="0 0 104 109" fill="none" xmlns="http://www.w3.org/2000/svg">
<path d="M103.745 9.78508C103.455 9.48746 102.736 9.63263 102.736 9.63263C102.808 9.2147 102.808 8.78752 102.736 8.36958C102.605 7.96308 101.691 8.04292 101.691 8.04292C101.649 7.70062 101.649 7.35445 101.691 7.01215C101.698 6.93628 101.682 6.86 101.644 6.79375C101.606 6.72749 101.549 6.67448 101.48 6.64195C101.048 6.46549 100.583 6.38143 100.116 6.39514C99.5567 5.9959 101.821 2.82373 102.663 1.80747C103.506 0.79122 103.353 0 102.605 0C102.09 0 99.4478 3.04876 98.6348 4.07228C97.8218 5.09579 95.6658 7.9413 95.5933 5.66925C95.5207 3.39719 94.606 1.68408 94.0326 1.39372C93.4591 1.10336 92.8494 1.78569 93.1615 2.41722C93.4357 3.1347 93.6068 3.88746 93.6696 4.65299C93.7485 5.26279 93.7215 5.88163 93.5898 6.48225C93.3491 7.59979 93.0215 8.69682 92.6098 9.7633H92.5518C92.5518 9.7633 76.7127 24.9563 75.5658 26.0379C74.5423 27.0106 53.9559 24.8837 49.8255 24.4482C48.422 24.2428 47.0047 24.1457 45.5863 24.1578C43.7933 24.2377 43.4739 24.4917 41.6882 24.5135C37.1785 24.5636 32.6793 24.9591 28.2301 25.6967C26.2155 26.0392 24.3336 26.9285 22.7898 28.2674C21.2461 29.6064 20.0997 31.3436 19.4758 33.2896C15.3164 46.2831 5.89427 77.0394 4.23196 94.3157C2.97584 96.5936 1.84184 98.9367 0.834774 101.335C-0.333918 104.515 -0.0508191 104.623 0.341165 104.696C1.40097 104.892 2.60596 99.1864 3.05601 100.566C3.50607 101.945 0.769446 107.367 1.88007 107.527C3.33186 107.73 4.48603 101.72 4.62395 101.241C4.76187 100.762 5.48051 100.914 5.34985 101.364C5.13934 102.003 3.09957 108.776 4.52233 108.993C5.3063 109.109 5.3934 107.679 5.3934 107.679C5.3934 107.679 6.8452 101.197 7.50576 101.328C8.16633 101.458 7.46221 105.284 7.12829 106.562C6.79438 107.839 7.25895 108.485 7.94129 108.173C8.40587 107.955 9.5165 104.072 9.82137 102.809C10.1262 101.546 10.8884 98.0468 11.9119 100.072C12.9355 102.097 14.4889 103.273 15.1277 103.302C15.2716 103.286 15.4073 103.226 15.5172 103.132C15.6272 103.038 15.7064 102.913 15.7447 102.773C15.7829 102.633 15.7785 102.485 15.7319 102.348C15.6853 102.211 15.5988 102.091 15.4834 102.003C14.9339 101.466 14.4624 100.856 14.0824 100.188C13.7438 99.6684 13.4981 99.0936 13.3565 98.4896C13.064 97.2855 12.8937 96.0549 12.8484 94.8165L12.7322 94.0906C14.3582 86.0405 19.0402 62.4125 25.7983 47.3212L28.5713 53.0267L29.7762 57.2514L22.3866 75.4932L53.905 75.0794L49.2012 56.9756L54.914 38.1023C61.0914 38.2402 76.9522 38.4725 79.5945 37.2748C82.9191 35.823 100.116 14.1042 100.116 14.1042C101.237 13.2331 102.31 12.3027 103.331 11.3167C103.331 11.3167 104.377 10.4384 103.745 9.78508Z" fill="#FFBE9D"/>
</svg>
