<svg width="4" height="83" viewBox="0 0 4 83" fill="none" xmlns="http://www.w3.org/2000/svg">
<path d="M3.3987 83L3.13452 82.8501C2.92655 82.7181 2.71208 82.5966 2.49193 82.4861L2.14207 82.2862L1.59943 81.9721L1.13533 81.708L0.878289 81.5653C0.739874 81.4973 0.618023 81.3998 0.52129 81.2797C0.402864 81.1539 0.306336 81.0092 0.235695 80.8515C0.0776322 80.5067 -0.00280174 80.1315 7.45052e-05 79.7522V0L2.66328 1.56321V81.2441C2.67624 81.6062 2.7511 81.9635 2.88462 82.3005C2.97512 82.5076 3.10623 82.6945 3.27019 82.8501C3.29952 82.8922 3.33875 82.9266 3.38443 82.95L3.3987 83Z" fill="#37474F"/>
</svg>
