<svg width="3" height="6" viewBox="0 0 3 6" fill="none" xmlns="http://www.w3.org/2000/svg">
<path d="M1.44564 0.196503C1.61634 0.0863901 1.81141 0.0197347 2.01382 0.00236482C2.17063 -0.0094137 2.3276 0.0229712 2.46693 0.0958406C2.59105 0.170759 2.69287 0.277503 2.76181 0.405013C2.83366 0.539985 2.87074 0.690725 2.8697 0.843614C2.87979 0.886165 2.87979 0.930492 2.8697 0.973043C2.85745 1.01168 2.83198 1.04476 2.79777 1.06651L2.16486 1.43321C2.12712 1.44296 2.08752 1.44296 2.04978 1.43321L1.97067 1.39007L1.92032 1.33974C1.89573 1.31494 1.86637 1.29537 1.83402 1.28221C1.78432 1.27083 1.73268 1.27083 1.68298 1.28221C1.60764 1.28951 1.53563 1.31682 1.47441 1.36131C1.41174 1.39788 1.35166 1.43872 1.2946 1.48354C1.2392 1.52587 1.18856 1.57408 1.14356 1.62734C1.10087 1.68296 1.06468 1.74326 1.03568 1.80709C1.00926 1.87333 0.997008 1.94436 0.999719 2.01562C0.992716 2.07197 1.00822 2.12881 1.04287 2.1738C1.06359 2.19381 1.08865 2.20876 1.11609 2.21749C1.14354 2.22622 1.17263 2.22849 1.2011 2.22413C1.29829 2.22036 1.39477 2.20589 1.48879 2.18099L1.93471 2.06594C2.08632 2.02122 2.24427 2.00179 2.4022 2.00843C2.52276 2.01255 2.63878 2.05542 2.73304 2.13066C2.83029 2.2224 2.90002 2.33943 2.93443 2.4686C2.98282 2.65392 3.00462 2.84517 2.99916 3.03662C2.99725 3.28072 2.95845 3.52313 2.88408 3.75564C2.81008 4.00679 2.70625 4.24819 2.57481 4.47465C2.44067 4.69357 2.27869 4.89417 2.09294 5.07144C1.91545 5.25085 1.71467 5.40563 1.49598 5.53161C1.31341 5.64806 1.10689 5.7218 0.891834 5.74732C0.736674 5.76805 0.578891 5.74052 0.439922 5.66848C0.300953 5.59644 0.187536 5.48339 0.115075 5.34467C0.0416741 5.18942 0.00243316 5.02024 0 4.84855C0.00263852 4.80105 0.0148709 4.75457 0.0359606 4.71193C0.0477619 4.67699 0.070447 4.64676 0.100691 4.62565L0.740798 4.25895C0.772154 4.23606 0.809858 4.22349 0.84868 4.22299C0.876198 4.22594 0.901734 4.23871 0.920604 4.25895L0.985334 4.31647C1.01044 4.35211 1.04545 4.37961 1.08602 4.39556C1.14004 4.41134 1.19743 4.41134 1.25145 4.39556C1.3391 4.38864 1.4234 4.3589 1.49598 4.30928C1.65685 4.22023 1.80251 4.10616 1.92751 3.97134C2.03701 3.86293 2.09908 3.71556 2.10013 3.5615C2.10343 3.53287 2.0992 3.50389 2.08784 3.4774C2.07649 3.45092 2.05841 3.42786 2.0354 3.41051C1.97377 3.3973 1.91003 3.3973 1.8484 3.41051C1.73878 3.42224 1.63045 3.44389 1.52475 3.47522L1.05726 3.59745C0.936741 3.64209 0.806465 3.65363 0.679978 3.63087C0.553491 3.60811 0.435414 3.55188 0.338033 3.46803C0.155199 3.20881 0.0733551 2.89175 0.107882 2.57645C0.108145 2.35032 0.139608 2.12529 0.201381 1.90776C0.264915 1.67228 0.356682 1.44535 0.474687 1.23189C0.595304 1.01495 0.740067 0.812331 0.906219 0.627906C1.0638 0.458344 1.24557 0.312979 1.44564 0.196503Z" fill="#F5F7FA"/>
</svg>
