<svg width="3" height="5" viewBox="0 0 3 5" fill="none" xmlns="http://www.w3.org/2000/svg">
<path d="M1.96881 2.86333V4.26762C1.96691 4.33311 1.95015 4.39732 1.9198 4.4554C1.89817 4.50393 1.86443 4.5461 1.82181 4.57786L1.11946 4.97792C1.11333 4.98487 1.10579 4.99044 1.09735 4.99425C1.0889 4.99806 1.07973 5.00003 1.07046 5.00003C1.06119 5.00003 1.05203 4.99806 1.04358 4.99425C1.03513 4.99044 1.02759 4.98487 1.02146 4.97792C1.00415 4.96112 0.990773 4.94068 0.982301 4.9181C0.973828 4.89551 0.970471 4.87133 0.972462 4.84729V3.443L0.155787 3.94103C0.140994 3.95368 0.122167 3.96064 0.102701 3.96064C0.0832351 3.96064 0.0644076 3.95368 0.0496149 3.94103C0.032106 3.92267 0.0186887 3.90081 0.0102429 3.87689C0.00179704 3.85296 -0.00148382 3.82752 0.000616392 3.80224V2.94497C0.00251792 2.87947 0.0192708 2.81527 0.0496149 2.75719C0.0688575 2.70478 0.106626 2.66122 0.155787 2.63473L0.972462 2.1367V0.740575C0.972058 0.67477 0.988953 0.610018 1.02146 0.552796C1.04072 0.50065 1.07478 0.45525 1.11946 0.422162L1.82181 0.0221128C1.82794 0.0151628 1.83548 0.00959314 1.84393 0.00578048C1.85237 0.00196783 1.86154 0 1.8708 0C1.88007 0 1.88924 0.00196783 1.89768 0.00578048C1.90613 0.00959314 1.91367 0.0151628 1.9198 0.0221128C1.93712 0.0389166 1.95049 0.0593365 1.95896 0.0819234C1.96744 0.10451 1.9708 0.128694 1.96881 0.152734V1.55702L2.78548 1.06716C2.79234 1.06 2.80058 1.0543 2.8097 1.0504C2.81883 1.04651 2.82864 1.0445 2.83856 1.0445C2.84848 1.0445 2.8583 1.04651 2.86742 1.0504C2.87655 1.0543 2.88479 1.06 2.89165 1.06716C2.90787 1.112 2.90787 1.16111 2.89165 1.20595V2.0224C2.90291 2.08174 2.90291 2.14267 2.89165 2.20202C2.86975 2.25498 2.83285 2.30037 2.78548 2.33264L1.96881 2.86333Z" fill="#F5F7FA"/>
</svg>
