<svg width="50" height="31" viewBox="0 0 50 31" fill="none" xmlns="http://www.w3.org/2000/svg">
<path d="M0.47838 8.75631C0.441626 8.58644 0.368879 8.42642 0.265025 8.28704C0.084205 7.95905 -0.00706416 7.58924 0.000426627 7.21481C0.00791742 6.84038 0.113902 6.47452 0.307696 6.15402C0.433426 5.99742 0.538593 5.82538 0.620631 5.64209C0.762873 5.25104 0.58507 4.81022 0.620631 4.39073C0.748649 2.52078 4.134 3.33844 5.20793 3.67972C5.52086 3.78637 7.34156 4.25564 8.05277 4.50449C7.98914 3.47833 8.09 2.4486 8.35149 1.45427C8.83511 -0.486781 10.4353 -0.287698 10.5278 0.899683C10.6158 1.97464 10.8161 3.03745 11.1252 4.07078C11.3243 4.83155 11.8364 5.58521 12.128 6.7086C12.5476 8.13062 12.441 8.92694 13.8634 10.2636C15.997 12.2758 26.9497 19.6987 26.9497 19.6987C29.6807 17.9425 40.2493 11.4439 44.2107 9.29667C48.0442 7.21342 50 8.8914 50 8.8914L46.6573 21.1989C46.6573 21.1989 33.4786 27.9961 28.7277 30.0723C25.4134 31.4943 23.9483 30.698 20.2927 27.4416C17.391 24.6971 13.5647 20.7297 9.43252 17.0751C7.78251 15.6104 6.58769 14.8638 5.42131 14.807C4.98035 14.807 4.5394 14.7572 4.10556 14.7145C3.12409 14.6008 1.97192 14.359 1.49541 13.385C1.33183 13.0579 1.2536 12.674 1.11847 12.3469C0.912214 11.8207 0.585057 11.3515 0.407255 10.8253C0.260746 10.4727 0.211635 10.0872 0.265025 9.70905C0.265025 9.40332 0.521053 9.09759 0.47838 8.75631Z" fill="#E8F5E9"/>
</svg>
