<svg width="62" height="44" viewBox="0 0 62 44" fill="none" xmlns="http://www.w3.org/2000/svg">
<path d="M61.3914 1.59997C61.1587 1.51014 60.9074 1.47932 60.6599 1.51025C60.4124 1.54118 60.1763 1.6329 59.9729 1.77723L4.72351 33.6198C4.11997 34.0147 3.61754 34.5457 3.25662 35.17C2.8957 35.7944 2.68636 36.4947 2.64544 37.2146V44.0001L0 42.4473V35.7115C0.0378703 34.9926 0.245226 34.2929 0.605138 33.6694C0.965049 33.0458 1.46732 32.5163 2.07097 32.1238L57.3275 0.281171C57.5414 0.12174 57.7959 0.0258592 58.0619 0.00453797C58.3279 -0.0167832 58.5945 0.0373214 58.8311 0.160637C59.2282 0.408798 60.9517 1.40144 61.3914 1.59997Z" fill="#4CAF4F"/>
</svg>
