<svg width="4" height="7" viewBox="0 0 4 7" fill="none" xmlns="http://www.w3.org/2000/svg">
<path d="M1.38096 4.93744C1.35513 4.91255 1.33347 4.88367 1.3168 4.85191L0.860541 3.88977V6.34147C0.862452 6.39823 0.850199 6.45456 0.824893 6.50539C0.805781 6.55162 0.773569 6.59126 0.732217 6.61943L0.104857 6.9829C0.0919439 6.99395 0.0755085 7.00001 0.0585161 7.00001C0.0415238 7.00001 0.0250912 6.99395 0.0121781 6.9829C0.004139 6.96372 0 6.94312 0 6.92232C0 6.90152 0.004139 6.88093 0.0121781 6.86175V2.07949C-0.00111019 2.02566 -0.00111019 1.9694 0.0121781 1.91557C0.0312908 1.86934 0.0635053 1.8297 0.104857 1.80153L0.660922 1.48082C0.725084 1.48082 0.774991 1.48082 0.803507 1.48082C0.828318 1.50395 0.849897 1.53032 0.867666 1.55922L1.65187 3.1628L2.42894 0.661212C2.44529 0.607028 2.46678 0.554525 2.4931 0.504416C2.52011 0.434858 2.57053 0.376882 2.63568 0.340486L3.19175 0.0197708C3.19774 0.0135187 3.20493 0.00854292 3.2129 0.00514388C3.22086 0.00174485 3.22943 0 3.23809 0C3.24675 0 3.25532 0.00174485 3.26328 0.00514388C3.27125 0.00854292 3.27844 0.0135187 3.28443 0.0197708C3.29272 0.0376347 3.29702 0.0570937 3.29702 0.0767885C3.29702 0.0964833 3.29272 0.115942 3.28443 0.133806V4.92319C3.29771 4.97702 3.29771 5.03327 3.28443 5.08711C3.26324 5.13207 3.23143 5.17121 3.19175 5.20114L2.56439 5.56462C2.55058 5.57352 2.53449 5.57825 2.51805 5.57825C2.50162 5.57825 2.48553 5.57352 2.47171 5.56462C2.46367 5.54543 2.45953 5.52484 2.45953 5.50404C2.45953 5.48324 2.46367 5.46264 2.47171 5.44346V2.98463L2.01545 4.46706C1.99788 4.52312 1.97645 4.57788 1.95129 4.63097C1.92735 4.68444 1.88752 4.72923 1.83722 4.75927L1.53067 4.93031C1.44512 4.95882 1.40948 4.96595 1.38096 4.93744Z" fill="#F5F7FA"/>
</svg>
