<svg width="26" height="26" viewBox="0 0 26 26" fill="none" xmlns="http://www.w3.org/2000/svg">
<path d="M1.36125 7.42679C0.939356 7.6676 0.590299 8.01779 0.350877 8.44039C0.111454 8.863 -0.00944689 9.34237 0.00092402 9.82795C-0.0156907 10.5552 0.192106 11.2699 0.596071 11.875C1.20703 12.6466 2.05258 13.1986 3.005 13.4474C3.41549 13.5456 3.81625 13.6807 4.20239 13.8511C4.68345 14.194 5.13386 14.5779 5.54855 14.9986C6.1933 15.4944 6.83097 16.0044 7.48989 16.486C8.79638 17.4615 10.1617 18.3556 11.578 19.1634C12.939 19.9424 14.3606 20.6104 15.8291 21.1609C17.3807 21.7346 18.6631 21.2317 20.321 21.3804L20.0801 25.8711C20.0801 25.8711 20.6328 24.837 21.2633 23.6045C21.8089 22.5421 24.0974 17.1306 24.0974 17.1306C24.9901 15.0057 26.1237 12.7816 25.9891 10.4088C25.8757 8.48925 25.4931 6.80348 24.0336 5.98892C23.9132 3.779 23.4101 2.70238 21.8585 1.5195C20.7136 0.745566 19.3986 0.259578 18.0254 0.102889C16.4744 -0.0761852 14.9052 -0.0212717 13.3705 0.265797C11.0749 0.634117 8.77936 1.22202 6.45545 1.10161C5.21359 0.96927 3.95829 1.04829 2.74286 1.33534C1.97077 1.58567 1.30038 2.07893 0.831751 2.74147C0.363118 3.404 0.121364 4.20029 0.142613 5.01145C0.0930175 5.85434 0.766104 7.24263 1.36125 7.42679Z" fill="#37474F"/>
</svg>
