<svg width="3" height="7" viewBox="0 0 3 7" fill="none" xmlns="http://www.w3.org/2000/svg">
<path d="M2.76822 0.0206213C2.77447 0.0141038 2.78196 0.00891686 2.79027 0.00537355C2.79857 0.00183024 2.8075 0 2.81653 0C2.82556 0 2.83449 0.00183024 2.84279 0.00537355C2.85109 0.00891686 2.85859 0.0141038 2.86483 0.0206213C2.88059 0.0359125 2.89276 0.0545058 2.90047 0.0750597C2.90818 0.0956136 2.91124 0.11762 2.90943 0.139497V5.13216C2.90769 5.19176 2.89245 5.25019 2.86483 5.30304C2.84526 5.34948 2.81143 5.38851 2.76822 5.41448L2.11424 5.79339C2.10799 5.79991 2.10049 5.8051 2.09219 5.80864C2.08389 5.81218 2.07496 5.814 2.06593 5.814C2.0569 5.814 2.04797 5.81218 2.03967 5.80864C2.03137 5.8051 2.02387 5.79991 2.01762 5.79339C2.01762 5.79339 2.01762 5.73395 2.01762 5.67452V3.77998L0.902871 4.42634V6.31346C0.903239 6.37334 0.887864 6.43226 0.858282 6.48433C0.840754 6.53179 0.80976 6.5731 0.7691 6.60321L0.107681 6.98211C0.0942199 6.99362 0.0770898 6.99995 0.0593762 6.99995C0.0416626 6.99995 0.0245297 6.99362 0.0110685 6.98211C-0.00368949 6.94131 -0.00368949 6.89662 0.0110685 6.85581V1.86315C0.000746564 1.80666 0.000746564 1.74876 0.0110685 1.69227C0.0331542 1.6454 0.0663118 1.6046 0.107681 1.5734L0.7691 1.19449C0.781964 1.18485 0.797611 1.17963 0.813691 1.17963C0.829771 1.17963 0.845419 1.18485 0.858282 1.19449C0.874216 1.2112 0.886425 1.2311 0.894111 1.25286C0.901796 1.27463 0.904782 1.29779 0.902871 1.32079V3.17818L2.01762 2.53924V0.674426C2.00434 0.61824 2.00434 0.559724 2.01762 0.503538C2.03967 0.458682 2.07296 0.420295 2.11424 0.392099L2.76822 0.0206213Z" fill="#F5F7FA"/>
</svg>
