<svg width="3" height="3" viewBox="0 0 3 3" fill="none" xmlns="http://www.w3.org/2000/svg">
<path d="M1.29273 0C1.45318 0.237063 1.58569 0.491885 1.68761 0.759388C1.91543 1.2378 2.21918 1.91366 2.55331 2.69583L2.61407 2.84012H2.45459L1.6952 2.90846C1.17122 2.90846 0.73078 3.00718 0.214395 2.99958C0.169431 2.98947 0.127757 2.96816 0.0932381 2.93762C0.0587189 2.90709 0.0324786 2.86832 0.0169586 2.82493C-0.00565286 2.75585 -0.00565286 2.68137 0.0169586 2.6123C0.0345327 2.50994 0.0573415 2.40855 0.0853008 2.30854L0.221985 1.76938C0.290675 1.4097 0.397606 1.05838 0.540938 0.721417C0.5268 1.08806 0.473331 1.45212 0.381462 1.80735L0.275148 2.34651C0.237178 2.52876 0.168833 2.80974 0.275148 2.78695C0.654842 2.78695 1.194 2.70343 1.6952 2.67305L2.45459 2.6047L2.35588 2.77176C2.02934 2.01237 1.75596 1.29855 1.59649 0.80495C1.45659 0.552848 1.35426 0.281672 1.29273 0Z" fill="#4CAF4F"/>
</svg>
