<svg width="9" height="15" viewBox="0 0 9 15" fill="none" xmlns="http://www.w3.org/2000/svg">
<path d="M9.00001 14.512C8.72506 14.5594 8.44404 14.5594 8.16909 14.512C7.40776 14.434 6.66021 14.255 5.94603 13.98C4.75367 13.5319 3.66822 12.8394 2.75942 11.9469C1.85061 11.0544 1.13855 9.98172 0.668973 8.79768C0.149946 7.49517 -0.0716793 6.0932 0.0202747 4.69411C0.0527711 3.54011 0.39789 2.41658 1.01883 1.44334C1.45558 0.78769 2.10795 0.305497 2.86288 0.0803322C3.06461 0.0246742 3.27318 -0.0023163 3.48243 0.000155604C3.6282 0.000155604 3.70109 0.000155604 3.70109 0.000155604C3.70109 0.000155604 3.39497 0.000158702 2.90662 0.196955C2.21404 0.452818 1.62663 0.932481 1.23749 1.55995C0.246225 3.11974 -0.0307429 5.96965 1.02613 8.63004C1.51801 9.88443 2.28808 11.0109 3.27834 11.9245C4.08975 12.6722 5.02433 13.2739 6.04077 13.703C6.99467 14.08 7.98701 14.3513 9.00001 14.512Z" fill="#263238"/>
</svg>
