<svg width="35" height="35" viewBox="0 0 35 35" fill="none" xmlns="http://www.w3.org/2000/svg">
<g clip-path="url(#clip0_834_91)">
<path d="M28.8024 0H6.19763C2.77477 0 0 2.8459 0 6.35649V28.6435C0 32.1541 2.77477 35 6.19763 35H28.8024C32.2252 35 35 32.1541 35 28.6435V6.35649C35 2.8459 32.2252 0 28.8024 0Z" fill="#001E36"/>
<path d="M7.88086 24.5444V9.15612C7.88086 9.04459 7.92737 8.98778 8.02175 8.98778C8.27137 8.98778 8.50049 8.98778 8.84244 8.97585C9.1844 8.96393 9.5585 8.95972 9.95791 8.952L11.2259 8.92745C11.6718 8.9195 12.1138 8.91553 12.552 8.91553C13.7415 8.91553 14.7446 9.06797 15.5612 9.37287C16.2953 9.6281 16.9649 10.0476 17.5213 10.6011C17.9932 11.0811 18.3577 11.6605 18.5896 12.2993C18.809 12.9213 18.9199 13.5781 18.9172 14.2395C18.9172 15.5245 18.6277 16.5842 18.0486 17.4184C17.4655 18.2563 16.6461 18.8908 15.7007 19.2366C14.7145 19.614 13.6182 19.7416 12.4132 19.7416C12.0712 19.7416 11.8264 19.7381 11.6855 19.7297C11.5446 19.7213 11.3333 19.7178 11.0515 19.7178V24.522C11.0551 24.5469 11.0538 24.5723 11.0477 24.5967C11.0417 24.6212 11.031 24.6441 11.0162 24.6643C11.0014 24.6844 10.9829 24.7014 10.9618 24.7142C10.9406 24.7269 10.9172 24.7353 10.8928 24.7387C10.8754 24.7415 10.8576 24.7415 10.8402 24.7387H8.045C7.93284 24.7366 7.88086 24.6728 7.88086 24.5444ZM11.0515 11.8777V16.8966C11.2548 16.9129 11.4427 16.9209 11.615 16.9204H12.3899C12.9601 16.9184 13.5265 16.8257 14.0689 16.6455C14.5339 16.5044 14.9496 16.2292 15.2665 15.8528C15.5715 15.4839 15.724 14.9695 15.724 14.3096C15.7358 13.8437 15.6172 13.3841 15.382 12.9853C15.1356 12.5995 14.7793 12.301 14.3616 12.1302C13.8171 11.9134 13.2357 11.811 12.6518 11.8293C12.2757 11.8293 11.9431 11.8333 11.654 11.8413C11.3649 11.8492 11.1652 11.8614 11.0549 11.8777H11.0515Z" fill="#31A8FF"/>
<path d="M27.9959 15.9839C27.5547 15.7511 27.0846 15.5809 26.5987 15.4781C26.0634 15.352 25.5161 15.2873 24.9669 15.2852C24.6699 15.2771 24.3733 15.3137 24.0867 15.3939C23.904 15.4354 23.7416 15.5421 23.6284 15.6949C23.5519 15.8171 23.5113 15.9593 23.5115 16.1045C23.5156 16.2453 23.5652 16.3808 23.6524 16.4896C23.7894 16.6542 23.957 16.7892 24.1455 16.8866C24.48 17.0709 24.8249 17.2348 25.1782 17.3776C25.9662 17.6483 26.7193 18.0163 27.4207 18.4733C27.8982 18.7829 28.2934 19.209 28.5711 19.7134C28.8051 20.1919 28.9224 20.7214 28.913 21.2566C28.9269 21.9624 28.7303 22.6557 28.3495 23.2438C27.9416 23.8403 27.3752 24.3041 26.7177 24.5801C26.0037 24.9018 25.1223 25.0627 24.0737 25.0627C23.4078 25.069 22.7431 25.0044 22.0903 24.8698C21.5758 24.773 21.075 24.6111 20.5994 24.3879C20.5479 24.3608 20.5051 24.3192 20.4759 24.268C20.4467 24.2168 20.4323 24.1581 20.4346 24.0989V21.4986C20.4316 21.4731 20.4355 21.4473 20.4459 21.4239C20.4562 21.4005 20.4727 21.3805 20.4934 21.3661C20.5135 21.3543 20.5367 21.3491 20.5598 21.3512C20.5829 21.3533 20.6049 21.3627 20.6226 21.378C21.1849 21.7179 21.7954 21.9657 22.4323 22.1124C22.9932 22.2568 23.5686 22.3335 24.1468 22.3411C24.694 22.3411 25.097 22.2688 25.356 22.1243C25.4726 22.0695 25.5712 21.9813 25.6399 21.8703C25.7086 21.7592 25.7444 21.6301 25.7431 21.4986C25.7431 21.2896 25.6257 21.0887 25.3909 20.8961C25.1561 20.7034 24.6782 20.4719 23.9574 20.2017C23.2202 19.9385 22.5212 19.574 21.8797 19.1179C21.4208 18.791 21.0428 18.3586 20.7758 17.8553C20.5444 17.3809 20.4272 16.8566 20.4339 16.3262C20.4319 15.6872 20.6028 15.0602 20.9277 14.515C21.2968 13.916 21.8269 13.4393 22.4542 13.1423C23.1426 12.7892 24.0034 12.6127 25.0366 12.6127C25.6418 12.6075 26.2465 12.6516 26.8449 12.7446C27.2781 12.8017 27.7015 12.9197 28.1033 13.0953C28.1352 13.1047 28.1645 13.1216 28.189 13.1446C28.2134 13.1676 28.2323 13.1961 28.2442 13.2279C28.2601 13.2866 28.2679 13.3472 28.2674 13.4082V15.8408C28.2693 15.8689 28.264 15.897 28.252 15.9224C28.24 15.9477 28.2217 15.9694 28.199 15.9853C28.1674 16.0012 28.1326 16.0093 28.0973 16.0091C28.0621 16.0088 28.0274 16.0002 27.9959 15.9839Z" fill="#31A8FF"/>
</g>
<defs>
<clipPath id="clip0_834_91">
<rect width="35" height="35" fill="white"/>
</clipPath>
</defs>
</svg>
