<svg width="19" height="19" viewBox="0 0 19 19" fill="none" xmlns="http://www.w3.org/2000/svg">
<g opacity="0.7" clip-path="url(#clip0_1_4280)">
<path d="M16.6254 16.6249L13.074 13.0672L16.6254 16.6249ZM15.0421 8.31241C15.0421 10.0971 14.3331 11.8087 13.0712 13.0707C11.8092 14.3326 10.0976 15.0416 8.31292 15.0416C6.52823 15.0416 4.81664 14.3326 3.55468 13.0707C2.29272 11.8087 1.58375 10.0971 1.58375 8.31241C1.58375 6.52773 2.29272 4.81614 3.55468 3.55418C4.81664 2.29221 6.52823 1.58325 8.31292 1.58325C10.0976 1.58325 11.8092 2.29221 13.0712 3.55418C14.3331 4.81614 15.0421 6.52773 15.0421 8.31241V8.31241Z" stroke="white" stroke-width="1.83415" stroke-linecap="round"/>
</g>
<defs>
<clipPath id="clip0_1_4280">
<rect width="18.3415" height="18.3415" fill="white" transform="scale(1.0359)"/>
</clipPath>
</defs>
</svg>
