<svg width="30" height="30" viewBox="0 0 30 30" fill="none" xmlns="http://www.w3.org/2000/svg">
<g opacity="0.4">
<path d="M9.92463 3.06765C9.57312 3.41926 9.37565 3.89609 9.37565 4.39327C9.37565 4.89045 9.57312 5.36728 9.92463 5.71889L19.2059 15.0001L9.92463 24.2814C9.58308 24.635 9.39409 25.1086 9.39836 25.6003C9.40263 26.0919 9.59983 26.5621 9.94747 26.9098C10.2951 27.2574 10.7654 27.4546 11.257 27.4589C11.7486 27.4632 12.2222 27.2742 12.5759 26.9326L23.1827 16.3258C23.5342 15.9741 23.7317 15.4973 23.7317 15.0001C23.7317 14.503 23.5342 14.0261 23.1827 13.6745L12.5759 3.06765C12.2243 2.71614 11.7474 2.51867 11.2502 2.51867C10.7531 2.51867 10.2762 2.71614 9.92463 3.06765Z" fill="white"/>
</g>
</svg>
