<svg width="23" height="23" viewBox="0 0 23 23" fill="none" xmlns="http://www.w3.org/2000/svg">
<g opacity="0.5">
<path d="M18.6553 15.7491L19.8995 16.1379V14.8344V13.1671V12.636L19.4491 12.3545L13.2307 8.46795V4.41425C13.2307 3.19308 12.2431 2.2055 11.0219 2.2055C9.80074 2.2055 8.81316 3.19308 8.81316 4.41425V8.46795L2.59471 12.3545L2.14429 12.636V13.1671V14.8344V16.1379L3.38847 15.7491L8.81316 14.0539V16.856L7.52928 17.8189L7.14594 18.1064V18.5856V19.836V21.1065L8.36755 20.7575L11.0219 19.9991L13.6763 20.7575L14.8979 21.1065V19.836V18.5856V18.1064L14.5145 17.8189L13.2307 16.856V14.0539L18.6553 15.7491Z" fill="white" stroke="black" stroke-width="1.83415"/>
</g>
</svg>
