<svg width="23" height="23" viewBox="0 0 23 23" fill="none" xmlns="http://www.w3.org/2000/svg">
<g opacity="0.5" clip-path="url(#clip0_1_4739)">
<path d="M18.6543 15.7495L19.8985 16.1383V14.8348V13.1676V12.6364L19.4481 12.3549L13.2296 8.4684V4.41471C13.2296 3.19354 12.242 2.20596 11.0209 2.20596C9.79971 2.20596 8.81213 3.19354 8.81213 4.41471V8.4684L2.59368 12.3549L2.14327 12.6364V13.1676V14.8348V16.1383L3.38744 15.7495L8.81213 14.0543V16.8565L7.52825 17.8194L7.14491 18.1069V18.586V19.8365V21.1069L8.36652 20.7579L11.0209 19.9995L13.6752 20.7579L14.8968 21.1069V19.8365V18.586V18.1069L14.5135 17.8194L13.2296 16.8565V14.0543L18.6543 15.7495Z" fill="white" stroke="black" stroke-width="1.83415"/>
</g>
<defs>
<clipPath id="clip0_1_4739">
<rect width="22.0099" height="22.0099" fill="white" transform="scale(1.04498)"/>
</clipPath>
</defs>
</svg>
