<svg width="23" height="23" viewBox="0 0 23 23" fill="none" xmlns="http://www.w3.org/2000/svg">
<g opacity="0.5">
<path d="M17.2493 9.58297L14.3743 11.0205L10.5409 8.14547L9.58259 13.4163L12.9368 16.2913L13.4159 20.6038M17.2493 8.14547V20.6038M9.58259 16.2913L7.66593 20.6038M8.1451 8.14547C6.7076 9.10381 5.74927 11.4996 5.74927 11.4996L7.66593 12.458M11.4993 6.22881C12.0076 6.22881 12.4951 6.02687 12.8545 5.66743C13.214 5.30799 13.4159 4.82048 13.4159 4.31214C13.4159 3.80381 13.214 3.3163 12.8545 2.95686C12.4951 2.59741 12.0076 2.39548 11.4993 2.39548C10.9909 2.39548 10.5034 2.59741 10.144 2.95686C9.78453 3.3163 9.58259 3.80381 9.58259 4.31214C9.58259 4.82048 9.78453 5.30799 10.144 5.66743C10.5034 6.02687 10.9909 6.22881 11.4993 6.22881Z" stroke="black" stroke-width="1.83415" stroke-linecap="round" stroke-linejoin="round"/>
</g>
</svg>
