<svg width="23" height="23" viewBox="0 0 23 23" fill="none" xmlns="http://www.w3.org/2000/svg">
<g opacity="0.5">
<path d="M17.2502 9.58374L14.3752 11.0212L10.5419 8.14624L9.58359 13.4171L12.9377 16.2921L13.4169 20.6046M17.2502 8.14624V20.6046M9.58359 16.2921L7.66692 20.6046M8.14609 8.14624C6.70859 9.10457 5.75026 11.5004 5.75026 11.5004L7.66692 12.4587M11.5003 6.22957C12.0086 6.22957 12.4961 6.02764 12.8555 5.6682C13.215 5.30875 13.4169 4.82124 13.4169 4.31291C13.4169 3.80458 13.215 3.31707 12.8555 2.95762C12.4961 2.59818 12.0086 2.39625 11.5003 2.39625C10.9919 2.39625 10.5044 2.59818 10.145 2.95762C9.78552 3.31707 9.58359 3.80458 9.58359 4.31291C9.58359 4.82124 9.78552 5.30875 10.145 5.6682C10.5044 6.02764 10.9919 6.22957 11.5003 6.22957Z" stroke="black" stroke-width="1.83415" stroke-linecap="round" stroke-linejoin="round"/>
</g>
</svg>
