<svg width="23" height="23" viewBox="0 0 23 23" fill="none" xmlns="http://www.w3.org/2000/svg">
<g opacity="0.5">
<path d="M17.2503 9.58324L14.3753 11.0207L10.5419 8.14574L9.5836 13.4166L12.9378 16.2916L13.4169 20.6041M17.2503 8.14574V20.6041M9.5836 16.2916L7.66693 20.6041M8.1461 8.14574C6.7086 9.10407 5.75027 11.4999 5.75027 11.4999L7.66693 12.4582M11.5003 6.22907C12.0086 6.22907 12.4961 6.02714 12.8556 5.66769C13.215 5.30825 13.4169 4.82074 13.4169 4.31241C13.4169 3.80407 13.215 3.31656 12.8556 2.95712C12.4961 2.59767 12.0086 2.39574 11.5003 2.39574C10.9919 2.39574 10.5044 2.59767 10.145 2.95712C9.78554 3.31656 9.5836 3.80407 9.5836 4.31241C9.5836 4.82074 9.78554 5.30825 10.145 5.66769C10.5044 6.02714 10.9919 6.22907 11.5003 6.22907Z" stroke="black" stroke-width="1.83415" stroke-linecap="round" stroke-linejoin="round"/>
</g>
</svg>
