<svg width="23" height="23" viewBox="0 0 23 23" fill="none" xmlns="http://www.w3.org/2000/svg">
<g opacity="0.5">
<path d="M17.2505 9.58297L14.3755 11.0205L10.5421 8.14547L9.58381 13.4163L12.938 16.2913L13.4171 20.6038M17.2505 8.14547V20.6038M9.58381 16.2913L7.66714 20.6038M8.14631 8.14547C6.70881 9.10381 5.75048 11.4996 5.75048 11.4996L7.66714 12.458M11.5005 6.22881C12.0088 6.22881 12.4963 6.02687 12.8558 5.66743C13.2152 5.30799 13.4171 4.82048 13.4171 4.31214C13.4171 3.80381 13.2152 3.3163 12.8558 2.95686C12.4963 2.59741 12.0088 2.39548 11.5005 2.39548C10.9921 2.39548 10.5046 2.59741 10.1452 2.95686C9.78574 3.3163 9.58381 3.80381 9.58381 4.31214C9.58381 4.82048 9.78574 5.30799 10.1452 5.66743C10.5046 6.02687 10.9921 6.22881 11.5005 6.22881Z" stroke="black" stroke-width="1.83415" stroke-linecap="round" stroke-linejoin="round"/>
</g>
</svg>
