<svg width="23" height="23" viewBox="0 0 23 23" fill="none" xmlns="http://www.w3.org/2000/svg">
<g opacity="0.5">
<path d="M21.0827 20.1249H1.91606V18.2083H2.87439V3.83326C2.87439 3.57909 2.97536 3.33534 3.15508 3.15561C3.3348 2.97589 3.57856 2.87492 3.83272 2.87492H17.2494C17.5036 2.87492 17.7473 2.97589 17.927 3.15561C18.1068 3.33534 18.2077 3.57909 18.2077 3.83326V8.62492H20.1244V18.2083H21.0827V20.1249ZM16.2911 18.2083H18.2077V10.5416H12.4577V18.2083H14.3744V12.4583H16.2911V18.2083ZM16.2911 8.62492V4.79159H4.79106V18.2083H10.5411V8.62492H16.2911ZM6.70773 10.5416H8.62439V12.4583H6.70773V10.5416ZM6.70773 14.3749H8.62439V16.2916H6.70773V14.3749ZM6.70773 6.70826H8.62439V8.62492H6.70773V6.70826Z" fill="black"/>
</g>
</svg>
