<svg width="23" height="23" viewBox="0 0 23 23" fill="none" xmlns="http://www.w3.org/2000/svg">
<g opacity="0.5">
<path d="M21.0843 20.125H1.91767V18.2083H2.876V3.83331C2.876 3.57914 2.97697 3.33538 3.15669 3.15566C3.33641 2.97594 3.58017 2.87497 3.83434 2.87497H17.251C17.5052 2.87497 17.7489 2.97594 17.9286 3.15566C18.1084 3.33538 18.2093 3.57914 18.2093 3.83331V8.62497H20.126V18.2083H21.0843V20.125ZM16.2927 18.2083H18.2093V10.5416H12.4593V18.2083H14.376V12.4583H16.2927V18.2083ZM16.2927 8.62497V4.79164H4.79267V18.2083H10.5427V8.62497H16.2927ZM6.70934 10.5416H8.626V12.4583H6.70934V10.5416ZM6.70934 14.375H8.626V16.2916H6.70934V14.375ZM6.70934 6.70831H8.626V8.62497H6.70934V6.70831Z" fill="black"/>
</g>
</svg>
